<svg id="svgcontent" width="640" height="480" x="640" y="480" overflow="visible" xmlns="http://www.w3.org/2000/svg" xmlns:se="http://svg-edit.googlecode.com" xmlns:xlink="http://www.w3.org/1999/xlink" viewBox="0 0 640 480"><g><path fill="none" stroke="#000000" stroke-width="22" d="M298.5,110.5 C 292.5,115.5,291.8870544433594,116.22110748291016,291.294677734375,117.02266693115234 290.66888427734375,117.86945343017578,290.04888916015625,118.79591369628906,289.4166564941406,119.79166412353516 288.74700927734375,120.8463363647461,288.0652160644531,121.98075103759766,287.3586730957031,123.19066619873047 285.82000732421875,125.82559204101562,285.0102844238281,127.26953125,284.16400146484375,128.7826690673828 283.2847595214844,130.35476684570312,282.3905029296875,131.98365783691406,281.5,133.6666717529297 280.59295654296875,135.3809356689453,279.6905517578125,137.12623596191406,278.83599853515625,138.91065979003906 277.126220703125,142.4809112548828,276.37152099609375,144.29443359375,275.6413269042969,146.1026611328125 274.9142150878906,147.90322875976562,274.23358154296875,149.71759033203125,273.5833435058594,151.5416717529297 272.9322204589844,153.36830139160156,272.3098449707031,155.211669921875,271.705322265625,157.07066345214844 270.4834899902344,160.8280029296875,269.8922424316406,162.74099731445312,269.3080139160156,164.67599487304688 268.7181396484375,166.6296844482422,268.14642333984375,168.6100311279297,267.625,170.625 267.09820556640625,172.66079711914062,266.602294921875,174.72975158691406,266.2120056152344,176.843994140625 265.416748046875,181.15213012695312,265.2039794921875,183.38372802734375,265.0119934082031,185.64132690429688 264.817626953125,187.92665100097656,264.70074462890625,190.2434539794922,264.625,192.5833282470703 264.5486145019531,194.94223022460938,264.5195007324219,197.3179473876953,264.50799560546875,199.70533752441406 264.4848937988281,204.4999542236328,264.5,206.89967346191406,264.5,209.29733276367188 264.5,211.6909942626953,264.5,214.0786590576172,264.5,216.4583282470703 264.5,218.8280029296875,264.5,221.1856689453125,264.5,223.52932739257812 264.5,228.1666717529297,264.49578857421875,230.4573516845703,264.50665283203125,232.73199462890625 264.5174560546875,234.99468994140625,264.54083251953125,237.24964904785156,264.6041564941406,239.5 264.66748046875,241.7510528564453,264.7556457519531,244.00741577148438,264.9266662597656,246.26800537109375 265.27239990234375,250.83834838867188,265.58612060546875,253.14547729492188,265.9306640625,255.46533203125 266.2773742675781,257.7996826171875,266.6917724609375,260.13336181640625,267.1666564941406,262.4583435058594 267.64117431640625,264.78155517578125,268.16485595703125,267.0877990722656,268.7626647949219,269.361328125 269.942626953125,273.84881591796875,270.6443786621094,276.02099609375,271.364013671875,278.1586608886719 272.07763671875,280.2784729003906,272.8491516113281,282.36517333984375,273.6875,284.4166564941406 274.5252685546875,286.4667663574219,275.4215393066406,288.4990539550781,276.4159851074219,290.4946594238281 278.4297790527344,294.5357666015625,279.6086120605469,296.51177978515625,280.8146667480469,298.4946594238281 282.0312194824219,300.4947814941406,283.319091796875,302.4698486328125,284.6666564941406,304.4166564941406 286.017822265625,306.3686828613281,287.4165954589844,308.2904357910156,288.878662109375,310.1586608886719 291.78466796875,313.8719482421875,293.32904052734375,315.624755859375,294.8653259277344,317.3506774902344 296.38330078125,319.0560302734375,297.9192810058594,320.7016296386719,299.4583435058594,322.2916564941406 300.9675598144531,323.8508605957031,302.4696350097656,325.3500671386719,303.9613342285156,326.78265380859375 306.8130187988281,329.5213317871094,308.2065734863281,330.77789306640625,309.5559997558594,331.9800109863281 310.8555603027344,333.1376647949219,312.1257629394531,334.2308349609375,313.375,335.25 314.57684326171875,336.2304992675781,315.7516174316406,337.1522521972656,316.92401123046875,337.9800109863281 319.1371765136719,339.5426025390625,320.2480163574219,340.18475341796875,321.3213195800781,340.78533935546875 322.3511657714844,341.3616027832031,323.35980224609375,341.8714599609375,324.3333435058594,342.3333435058594 325.25872802734375,342.77239990234375,326.1469421386719,343.1611633300781,326.9853210449219,343.5213317871094 328.498046875,344.1711730957031,329.17120361328125,344.4562072753906,329.7879943847656,344.7266540527344 330.357177734375,344.9762268066406,330.88262939453125,345.20989990234375,331.375,345.4166564941406 331.8347473144531,345.6097106933594,332.26904296875,345.78826904296875,332.6919860839844,345.9266662597656 333.4930725097656,346.1888122558594,333.8983459472656,346.2645263671875,334.2973327636719,346.329345703125 334.68988037109375,346.39312744140625,335.0783386230469,346.4327087402344,335.4583435058594,346.4583435058594 335.8277282714844,346.4832458496094,336.1856384277344,346.49346923828125,336.5293273925781,346.4973449707031 337.1666259765625,346.5045471191406,337.4580993652344,346.50341796875,337.7373352050781,346.4946594238281 338.0128173828125,346.48602294921875,338.2931823730469,346.46514892578125,338.5833435058594,346.4166564941406 338.89617919921875,346.3643798828125,339.2374572753906,346.28228759765625,339.6093444824219,346.1586608886719 340.5091552734375,345.85955810546875,341.0335693359375,345.6205139160156,341.6199951171875,345.3479919433594 342.27410888671875,345.0440368652344,342.9853210449219,344.6802062988281,343.75,344.25 344.5859069824219,343.77972412109375,345.480712890625,343.240966796875,346.4200134277344,342.61199951171875 348.5246276855469,341.2027587890625,349.637939453125,340.3384094238281,350.81201171875,339.4093322753906 352.05255126953125,338.4276428222656,353.3265380859375,337.3599548339844,354.625,336.2083435058594 355.97503662109375,335.010986328125,357.3464660644531,333.74072265625,358.7080078125,332.3773193359375 361.54107666015625,329.5404357910156,362.91412353515625,327.98419189453125,364.2919921875,326.38800048828125 365.6884765625,324.7702331542969,367.0526123046875,323.0968933105469,368.375,321.375 369.70074462890625,319.64874267578125,370.9864501953125,317.8929748535156,372.18798828125,316.0920104980469 374.5587463378906,312.53851318359375,375.5906982421875,310.7111511230469,376.5853271484375,308.8999938964844 377.5679016113281,307.11077880859375,378.47906494140625,305.3078308105469,379.3333435058594,303.5 380.1803283691406,301.7076416015625,380.9757995605469,299.90716552734375,381.7213439941406,298.1000061035156 383.2007751464844,294.5138854980469,383.865478515625,292.7032775878906,384.52667236328125,290.8999938964844 385.18548583984375,289.10321044921875,385.815673828125,287.3030090332031,386.4166564941406,285.5 387.0156555175781,283.7029724121094,387.5904846191406,281.9041442871094,388.1266784667969,280.1000061035156 389.1942138671875,276.5080871582031,389.66656494140625,274.70220947265625,390.1266784667969,272.8973388671875 390.5865478515625,271.093505859375,391.0172119140625,269.281005859375,391.4166564941406,267.4583435058594 391.8172912597656,265.6302795410156,392.1932678222656,263.7887268066406,392.52667236328125,261.9293212890625 393.20025634765625,258.1725158691406,393.4677429199219,256.2581787109375,393.7266540527344,254.32666015625 393.98785400390625,252.3781280517578,394.2174987792969,250.40777587890625,394.4166564941406,248.4166717529297 394.6175842285156,246.40773010253906,394.79248046875,244.3777618408203,394.9266662597656,242.32666015625 395.1986999511719,238.16864013671875,395.2660217285156,236.0572967529297,395.3280029296875,233.92933654785156 395.3904113769531,231.78590393066406,395.4248352050781,229.62806701660156,395.4375,227.4583282470703 395.4502258300781,225.27870178222656,395.4425354003906,223.0908966064453,395.4119873046875,220.8973388671875 395.35076904296875,216.49972534179688,395.2835998535156,214.30116271972656,395.2133483886719,212.1106719970703 395.1435852050781,209.9358367919922,395.0593566894531,207.78506469726562,394.9583435058594,205.6666717529297 394.8592224121094,203.58770751953125,394.74951171875,201.5565948486328,394.61334228515625,199.58267211914062 394.3545837402344,195.83180236816406,394.1880187988281,194.0716552734375,394.0119934082031,192.38800048828125 393.8432922363281,190.77430725097656,393.654541015625,189.22897338867188,393.4375,187.75 393.228759765625,186.32760620117188,393.00189208984375,184.9604949951172,392.7279968261719,183.65199279785156 392.20599365234375,181.15811157226562,391.86944580078125,179.98268127441406,391.5293273925781,178.843994140625 391.1977844238281,177.73397827148438,390.8373718261719,176.66195678710938,390.4583435058594,175.625 390.0877990722656,174.6112823486328,389.6995544433594,173.6287841796875,389.2973327636719,172.67599487304688 388.5165100097656,170.82627868652344,388.1057434082031,169.9399871826172,387.6946716308594,169.07066345214844 387.288330078125,168.21133422851562,386.8671569824219,167.36669921875,386.4166564941406,166.5416717529297 385.96575927734375,165.71591186523438,385.48968505859375,164.89703369140625,384.95867919921875,164.1026611328125 383.8703918457031,162.47462463378906,383.2225646972656,161.69320678710938,382.56134033203125,160.89999389648438 381.8886413574219,160.093017578125,381.1800842285156,159.2975311279297,380.4583435058594,158.5 379.7320861816406,157.69749450683594,378.9921875,156.9037628173828,378.26531982421875,156.10000610351562 376.8250732421875,154.50743103027344,376.1390075683594,153.7024688720703,375.46533203125,152.8973388671875 374.7929992675781,152.09378051757812,374.1298828125,151.27822875976562,373.4583435058594,150.4583282470703 372.77789306640625,149.62754821777344,372.0870361328125,148.77996826171875,371.361328125,147.92933654785156 369.8472900390625,146.15469360351562,369.0195007324219,145.2522430419922,368.1586608886719,144.33200073242188 367.27691650390625,143.389404296875,366.3609619140625,142.4443817138672,365.4166564941406,141.5 364.46234130859375,140.54562377929688,363.4893493652344,139.59751892089844,362.4946594238281,138.66799926757812 360.5145263671875,136.81764221191406,359.50494384765625,135.93873596191406,358.5053405761719,135.0760040283203 357.5221862792969,134.2274627685547,356.54608154296875,133.41050720214844,355.5833435058594,132.625 354.6473083496094,131.86126708984375,353.7327880859375,131.1323699951172,352.8413391113281,130.44400024414062 351.1742858886719,129.15672302246094,350.3885498046875,128.58203125,349.638671875,128.0413360595703 348.9223937988281,127.52486419677734,348.22576904296875,127.03934478759766,347.5416564941406,126.58333587646484 346.8736877441406,126.13809967041016,346.2078857421875,125.71107482910156,345.53466796875,125.30533599853516 344.175048828125,124.48592376708984,343.4594421386719,124.09712219238281,342.73468017578125,123.70266723632812 342.0054016113281,123.30575561523438,341.27166748046875,122.91941833496094,340.5416564941406,122.54166412353516 339.8236389160156,122.17011260986328,339.1201477050781,121.8133544921875,338.43865966796875,121.47066497802734 337.1675720214844,120.83150482177734,336.58599853515625,120.54299926757812,336.04132080078125,120.27066802978516 335.5286560058594,120.01433563232422,335.04400634765625,119.7719955444336,334.5833435058594,119.54166412353516 334.1426696777344,119.32132720947266,333.7179870605469,119.10900115966797,333.3053283691406,118.90266418457031 332.5,118.49999237060547,332.1000061035156,118.29999542236328,331.70001220703125,118.0999984741211 331.29998779296875,117.89999389648438,330.8999938964844,117.69999694824219,330.5,117.5 330.1000061035156,117.30000305175781,329.70001220703125,117.10000610351562,329.29998779296875,116.9000015258789 328.5,116.50001525878906,328.1000061035156,116.29999542236328,327.70001220703125,116.0999984741211 327.29998779296875,115.89999389648438,326.8999938964844,115.69999694824219,326.5,115.5 326.1000061035156,115.30000305175781,325.70001220703125,115.10000610351562,325.29998779296875,114.9000015258789 324.5,114.50001525878906,324.1000061035156,114.29999542236328,323.70001220703125,114.0999984741211 323.29998779296875,113.89999389648438,322.8999938964844,113.69999694824219,322.5,113.5 322.1000061035156,113.30000305175781,321.70001220703125,113.10000610351562,321.29998779296875,112.9000015258789 320.5,112.50001525878906,320.1007385253906,112.29951477050781,319.7026672363281,112.10266876220703 319.30938720703125,111.90819549560547,318.92236328125,111.71910858154297,318.5416564941406,111.54166412353516 318.1730041503906,111.36983489990234,317.8171081542969,111.20751953125,317.4706726074219,111.07066345214844 316.8381652832031,110.82079315185547,316.54449462890625,110.73709106445312,316.2706604003906,110.67066955566406 316.015625,110.60881042480469,315.7725524902344,110.56751251220703,315.5416564941406,110.54166412353516 315.3217468261719,110.51705169677734,315.10906982421875,110.50652313232422,314.9026794433594,110.50267028808594 314.50006103515625,110.49515533447266,314.29998779296875,110.5,314.1000061035156,110.5 313.8999938964844,110.5,313.70001220703125,110.5,313.5,110.5 313.29998779296875,110.5,313.1000061035156,110.5,312.8999938964844,110.5 312.5,110.5,312.29998779296875,110.5,312.1000061035156,110.5 311.8999938964844,110.5,311.70001220703125,110.5,311.5,110.5 311.29998779296875,110.5,311.1000061035156,110.5,310.8999938964844,110.5 310.5,110.5,310.29931640625,110.49845886230469,310.09466552734375,110.50267028808594 309.8819274902344,110.50704956054688,309.6569519042969,110.51753234863281,309.4166564941406,110.54166412353516 309.1555480957031,110.56787872314453,308.8700866699219,110.60772705078125,308.55865478515625,110.67066955566406 307.8300476074219,110.81793975830078,307.41400146484375,110.9403305053711,306.9639892578125,111.06800079345703 306.4886169433594,111.20286560058594,305.9986572265625,111.35066986083984,305.5,111.5 305.0013427734375,111.64933013916016,304.51190185546875,111.79894256591797,304.0360107421875,111.93199920654297 303.1687927246094,112.17446899414062,302.7865905761719,112.260009765625,302.44134521484375,112.33200073242188 302.129150390625,112.3970947265625,301.8435974121094,112.44731140136719,301.5833435058594,112.5 301.34228515625,112.54879760742188,301.1145935058594,112.5947036743164,300.90533447265625,112.66799926757812 300.4921875,112.81271362304688,300.2964172363281,112.93757629394531,300.1000061035156,113.07066345214844 299.8961486816406,113.20880126953125,299.69757080078125,113.36917877197266,299.5,113.54166412353516 299.2974548339844,113.71847534179688,299.0987548828125,113.90772247314453,298.8999938964844,114.10266876220703 298.4974670410156,114.4974365234375,298.3006286621094,114.70098876953125,298.0973205566406,114.9000015258789 297.8919677734375,115.10100555419922,297.6808776855469,115.30244445800781,297.4583435058594,115.5 297.230224609375,115.70252227783203,296.99005126953125,115.90576934814453,296.7293395996094,116.0999984741211 296.17572021484375,116.512451171875,295.8587646484375,116.7017593383789,295.53466796875,116.9000015258789 295.20477294921875,117.10179901123047,294.87066650390625,117.30000305175781,294.5416564941406,117.5 L 294.22265625,117.69999694824219 293.919677734375,117.9000015258789 293.638671875,118.0999984741211"></path></g></svg>