<svg id="svgcontent" width="640" height="480" x="640" y="480" overflow="visible" xmlns="http://www.w3.org/2000/svg" xmlns:se="http://svg-edit.googlecode.com" xmlns:xlink="http://www.w3.org/1999/xlink" viewBox="0 0 640 480"><g>
<path fill="none" stroke="#ffffff" stroke-width="1" d="M249.5,103.5 C 250.46800231933594,103.5,251.15066528320312,103.5,251.84933471679688,103.5 253.1666717529297,103.5,253.9856719970703,103.5,254.6786651611328,103.5 255.6999969482422,103.5,256.5,103.5,257.5,103.5 258.29998779296875,103.5,259.1000061035156,103.5,260.1000061035156,103.5 260.8999938964844,103.5,261.9026794433594,103.5,262.7720031738281,103.5 263.8333435058594,103.5,264.4679870605469,103.5,265.1506652832031,103.5 266.1946716308594,103.5,267.1666564941406,103.5,267.98565673828125,103.5 268.8909912109375,103.5,269.9771728515625,103.22969055175781,270.7856750488281,103.61433410644531 271.5578308105469,103.981689453125,271.78570556640625,105.06413269042969,272.638671875,105.32933044433594 273.50970458984375,105.60014343261719,274.2036437988281,105.49549865722656,275.1666564941406,105.5 276.2279968261719,105.50495910644531,276.8909912109375,105.5,277.8999938964844,105.5 278.70001220703125,105.5,279.70001220703125,105.5,280.5,105.5 281.5,105.5,282.29998779296875,105.5,283.1000061035156,105.5 284.1090087890625,105.5,285.01434326171875,105.5,286.1426696777344,105.5"></path>
<path fill="none" stroke="#000000" stroke-width="16" d="M297.5,116.5 C 297.5,119.58633422851562,297.5,120.53766632080078,297.5,121.0653305053711 297.5,122.21466827392578,297.5,122.83233642578125,297.5,123.47599792480469 297.5,124.83333587646484,297.5,125.5433349609375,297.5,127.02333068847656 297.5,127.7933349609375,297.5,128.5833282470703,297.5,129.39332580566406 297.5,130.22332763671875,297.5,131.07333374023438,297.5,132.8333282470703 297.5,133.7429962158203,297.5,134.67066955566406,297.5,135.6143341064453 297.5,136.57200622558594,297.5,137.5416717529297,297.5,138.52133178710938 297.5,139.50900268554688,297.5,140.50267028808594,297.5,142.5 297.5,143.5,297.5,144.5,297.5,145.5 297.5,146.5,297.5,147.5,297.5,148.5 297.5,149.5,297.5,150.5,297.5,152.5 297.5,153.50033569335938,297.5,154.50267028808594,297.5,155.50900268554688 297.5,156.52133178710938,297.5,157.5416717529297,297.5,158.57200622558594 297.5,159.6143341064453,297.5,160.67066955566406,297.5,162.8333282470703 297.5,163.94366455078125,297.5,165.0760040283203,297.5,166.23233032226562 297.5,167.4146728515625,297.5,168.625,297.5,169.86532592773438 297.5,171.13766479492188,297.5,172.44400024414062,297.5,175.1666717529297 297.5,176.58599853515625,297.5,178.0413360595703,297.5,179.52867126464844 297.5,181.04400634765625,297.5,182.5833282470703,297.5,184.14266967773438 297.5,185.71800231933594,297.5001525878906,187.30532836914062,297.5,190.5 297.4999084472656,192.09933471679688,297.5002136230469,193.69467163085938,297.4955139160156,195.28199768066406 297.4908447265625,196.85733032226562,297.4822998046875,198.4167022705078,297.4639892578125,199.95599365234375 297.4459533691406,201.47137451171875,297.430908203125,202.95916748046875,297.3333435058594,205.8333282470703 297.2864685058594,207.21429443359375,297.2187805175781,208.55882263183594,297.1473388671875,209.871337890625 297.077392578125,211.15615844726562,296.9994812011719,212.41664123535156,296.9253234863281,213.65733337402344 296.8521423339844,214.88197326660156,296.7706298828125,216.09405517578125,296.6666564941406,218.5 296.6148376464844,219.6993865966797,296.5818786621094,220.8972625732422,296.5571594238281,222.09100341796875 296.5325622558594,223.2786102294922,296.5188903808594,224.45831298828125,296.51068115234375,225.6280059814453 296.5025634765625,226.78564453125,296.50067138671875,227.92933654785156,296.5,230.1666717529297 296.4996643066406,231.2566680908203,296.5,232.32666015625,296.5,233.3766632080078 296.5,234.4066619873047,296.5,235.4166717529297,296.5,236.4066619873047 296.5,237.3766632080078,296.5,238.32666015625,296.5,240.1666717529297 296.5,241.0570068359375,296.5,241.92933654785156,296.5,242.78565979003906 296.5,243.6280059814453,296.5,244.4583282470703,296.5,245.27867126464844 296.5,246.09100341796875,296.5,246.8973388671875,296.5,248.5 296.5,249.29933166503906,296.5,250.09466552734375,296.5,250.8820037841797 296.5,251.65733337402344,296.5,252.4166717529297,296.5,253.156005859375 296.5,253.871337890625,296.5,254.5586700439453,296.5,255.8333282470703 296.5,256.4136657714844,296.5,256.95599365234375,296.5,257.46234130859375 296.5,257.9346618652344,296.5,258.375,296.5,258.78533935546875 296.5,259.16766357421875,296.5,259.52398681640625,296.5,260.1666564941406 296.5,260.4570007324219,296.5,260.7293395996094,296.5,260.98565673828125 296.5,261.2279968261719,296.5,261.4583435058594,296.5,261.6786804199219 296.5,261.8909912109375,296.5,262.0973205566406,296.5,262.5 296.5,262.7003479003906,296.5,262.9026794433594,296.5,263.1090087890625 296.5,263.3213195800781,296.5,263.5416564941406,296.5,263.7720031738281 296.5,264.01434326171875,296.5,264.2706604003906,296.5,264.8333435058594 296.5,265.14300537109375,296.5,265.4706726074219,296.5,265.8143310546875 296.5,266.1719970703125,296.5,266.5416564941406,296.5,266.92132568359375 296.5,267.3089904785156,296.5,267.7026672363281,296.5,268.5 296.5,268.899658203125,296.5,269.2973327636719,296.5,269.6910095214844 296.5,270.07867431640625,296.5,270.4583435058594,296.5,270.8280029296875 296.5,271.1856689453125,296.5,271.5293273925781,296.5,272.1666564941406 296.5,272.4570007324219,296.5,272.7293395996094,296.5,272.98565673828125 296.5,273.2279968261719,296.5,273.4583435058594,296.5,273.6786804199219 L 296.5,273.8909912109375 296.5,274.0973205566406"></path>
<path fill="none" stroke="#ffffff" stroke-width="1" d="M309,281.5 C 309.8493347167969,281.5,311.1666564941406,281.5,311.9946594238281,281.5 312.75067138671875,281.5,313.8333435058594,281.5,314.4706726074219,281.5 315.5416564941406,281.5,316.3089904785156,281.5,317.5,281.5 318.29998779296875,281.5,319.1000061035156,281.5,319.8999938964844,281.5 320.70001220703125,281.5,321.8999938964844,281.5,322.70001220703125,281.5 323.5,281.5,324.29998779296875,281.5,325.5,281.5 326.30267333984375,281.5,327.121337890625,281.5,327.97198486328125,281.5 328.4143371582031,281.5,329.8333435058594,281.5,330.8653259277344,281.5 331.3963317871094,281.5,332.4583435058594,281.5,332.9773254394531,281.5 333.9613342285156,281.5,335.2143249511719,281.5,335.8803405761719,281.5 336.7293395996094,281.5,337.8333435058594,281.5,338.4679870605469,281.5"></path></g></svg>