<svg xmlns="http://www.w3.org/2000/svg" xmlns:xlink="http://www.w3.org/1999/xlink" width="640" height="480" id="svgcontent" overflow="visible" x="640" y="480" viewBox="0 0 640 480"><g><path fill="none" stroke="#000000" stroke-width="20" d="M214,184 C 214,179.58433532714844,214,178.7413330078125,214,177.81033325195312 214,176.79733276367188,214,175.7083282470703,214,174.54933166503906 214,173.3263397216797,213.99903869628906,172.0453338623047,214,169.3333282470703 214.00050354003906,167.91366577148438,213.99940490722656,166.4558563232422,214.02699279785156,164.9623260498047 214.05520629882812,163.43447875976562,214.10818481445312,161.8739471435547,214.21600341796875,160.28533935546875 214.3258819580078,158.66641235351562,214.43467712402344,157.01185607910156,215,153.6666717529297 215.29014587402344,151.94984436035156,215.6940460205078,150.22325134277344,216.16099548339844,148.4856719970703 216.63510131835938,146.72149658203125,217.18826293945312,144.95144653320312,217.80799865722656,143.1786651611328 218.43544006347656,141.38380432128906,219.09848022460938,139.57545471191406,220.6666717529297,136 221.4607391357422,134.18955993652344,222.32684326171875,132.3992919921875,223.2376708984375,130.6269989013672 224.1482696533203,128.85513305664062,225.1066131591797,127.11421966552734,226.1146697998047,125.41600036621094 227.11422729492188,123.73210906982422,228.1139373779297,122.06805419921875,230.3333282470703,119 231.41259765625,117.50802612304688,232.54966735839844,116.1067123413086,233.6963348388672,114.7699966430664 234.81419372558594,113.46686553955078,235.94720458984375,112.2392578125,237.07733154296875,111.08000183105469 238.169677734375,109.95951080322266,239.240966796875,108.89778137207031,241.3333282470703,107 242.3040008544922,106.11959075927734,243.24639892578125,105.31160736083984,244.15333557128906,104.56999969482422 245.00689697265625,103.87203979492188,245.8255157470703,103.23916625976562,246.6133270263672,102.68000030517578 247.34620666503906,102.15982055664062,248.02659606933594,101.6702651977539,249.3333282470703,101 249.9035186767578,100.70753479003906,250.45486450195312,100.49395751953125,250.98033142089844,100.36100006103516 251.47225952148438,100.23653411865234,251.95892333984375,100.18421936035156,252.42933654785156,100.20800018310547 252.89816284179688,100.23169708251953,253.38104248046875,100.3049087524414,254.3333282470703,100.66666412353516 254.85403442382812,100.86447143554688,255.39097595214844,101.14397430419922,255.95033264160156,101.49166870117188 256.5685119628906,101.87593078613281,257.22039794921875,102.36054229736328,257.9093322753906,102.94667053222656 258.68011474609375,103.6024398803711,259.52069091796875,104.36680603027344,261.3333435058594,106.33333587646484 262.3930358886719,107.48297119140625,263.4937744140625,108.79358673095703,264.6573486328125,110.22733306884766 265.8999328613281,111.7583999633789,267.1781005859375,113.40808868408203,268.4853210449219,115.16533660888672 269.8479919433594,116.99713134765625,271.2504577636719,118.9036636352539,274,123 275.4200134277344,125.11558532714844,276.8096008300781,127.30548858642578,278.1820068359375,129.552001953125 279.572509765625,131.828125,280.9333801269531,134.15728759765625,282.2560119628906,136.53599548339844 283.5882568359375,138.93199157714844,284.9176025390625,141.34967041015625,287.3333435058594,146.3333282470703 288.54266357421875,148.8281707763672,289.6705627441406,151.35682678222656,290.74432373046875,153.89633178710938 291.81182861328125,156.42103576660156,292.81207275390625,158.9507293701172,293.7413330078125,161.4773406982422 294.6592102050781,163.97299194335938,295.54937744140625,166.44105529785156,297,171.3333282470703 297.7026062011719,173.70294189453125,298.30224609375,176.0403594970703,298.8345031738281,178.3263397216797 299.35101318359375,180.54469299316406,299.791015625,182.7047119140625,300.156005859375,184.79733276367188 300.5065612792969,186.8070526123047,300.83026123046875,188.7346649169922,301.1666564941406,192.3333282470703 301.32080078125,193.98214721679688,301.3936462402344,195.54409790039062,301.3736572265625,197.0193328857422 301.35467529296875,198.41941833496094,301.24945068359375,199.75668334960938,301.0226745605469,201.02133178710938 300.8026428222656,202.24842834472656,300.5462951660156,203.46961975097656,299.5,205.6666717529297 298.9659729003906,206.78802490234375,298.25238037109375,207.85086059570312,297.4674987792969,208.89466857910156 296.6593322753906,209.9694061279297,295.74383544921875,211.0137176513672,294.760009765625,212.0506591796875 293.7457580566406,213.11968994140625,292.6622619628906,214.1847686767578,290.3333435058594,216.3333282470703 289.1217346191406,217.4511260986328,287.86273193359375,218.57310485839844,286.5623474121094,219.6963348388672 285.2414855957031,220.83724975585938,283.8843078613281,221.96998596191406,282.4853210449219,223.07733154296875 281.0769348144531,224.192138671875,279.65960693359375,225.3131103515625,276.6666564941406,227.3333282470703 275.17462158203125,228.34043884277344,273.63787841796875,229.271240234375,272.09466552734375,230.18032836914062 270.5551452636719,231.08724975585938,269.0003662109375,231.958984375,267.4506530761719,232.82933044433594 265.90570068359375,233.69699096679688,264.3495178222656,234.53399658203125,261.3333435058594,236.3333282470703 259.8333435058594,237.22817993164062,258.36083984375,238.16513061523438,256.90533447265625,239.13233947753906 255.44338989257812,240.10382080078125,253.99314880371094,241.11550903320312,252.54933166503906,242.1653289794922 251.08767700195312,243.22811889648438,249.61447143554688,244.32177734375,246.6666717529297,246.6666717529297 245.1485595703125,247.87429809570312,243.62969970703125,249.13275146484375,242.10366821289062,250.41966247558594 240.5656280517578,251.7167205810547,239.03717041015625,253.0365447998047,237.5226593017578,254.37066650390625 236.0151824951172,255.69859313964844,234.52476501464844,257.01959228515625,231.6666717529297,259.6666564941406 230.27987670898438,260.9510498046875,228.93411254882812,262.2273864746094,227.64666748046875,263.52166748046875 226.37413024902344,264.80096435546875,225.1453857421875,266.1065673828125,223.98666381835938,267.4666748046875 222.8250274658203,268.8302001953125,221.65655517578125,270.22052001953125,219.6666717529297,273.3333435058594 218.63856506347656,274.941650390625,217.72268676757812,276.66510009765625,216.82867431640625,278.4303283691406 215.925048828125,280.21453857421875,215.07745361328125,282.0389709472656,214.24266052246094,283.86932373046875 213.41213989257812,285.6903381347656,212.6339111328125,287.51190185546875,211,291 210.21469116210938,292.6764831542969,209.41305541992188,294.2825622558594,208.6269989013672,295.8299865722656 207.8688507080078,297.3224792480469,207.12295532226562,298.7489318847656,206.41600036621094,300.1199951171875 205.7410430908203,301.4289855957031,205.07395935058594,302.6621398925781,204,305 203.51190185546875,306.0625,203.1017608642578,307.077880859375,202.7519989013672,308.03900146484375 202.42520141601562,308.93701171875,202.1556854248047,309.78857421875,201.93600463867188,310.5920104980469 201.73104858398438,311.3415832519531,201.55633544921875,312.0466003417969,201.3333282470703,313.3333435058594 201.23309326171875,313.91168212890625,201.16513061523438,314.4526672363281,201.11883544921875,314.9533386230469 201.07635498046875,315.41278076171875,201.0549774169922,315.83331298828125,201.0573272705078,316.2133483886719 201.05943298339844,316.553466796875,201.0562744140625,316.859619140625,201.1666717529297,317.3333435058594 201.20953369140625,317.51727294921875,201.27578735351562,317.6667175292969,201.36166381835938,317.7713317871094 201.4377899169922,317.8640441894531,201.53878784179688,317.9250793457031,201.64666748046875,317.95733642578125 201.7593536376953,317.99102783203125,201.88662719726562,317.99761962890625,202.1666717529297,318 202.32183837890625,318.0013122558594,202.4881134033203,317.9999084472656,202.66616821289062,317.9909973144531 202.85748291015625,317.9814147949219,203.0631561279297,317.9627990722656,203.2826690673828,317.9280090332031 203.51963806152344,317.8904724121094,203.77694702148438,317.84552001953125,204.3333282470703,317.6666564941406 204.6463623046875,317.5660095214844,204.97430419921875,317.4316711425781,205.32333374023438,317.2856750488281 205.6943817138672,317.1304626464844,206.08319091796875,316.9580078125,206.4933319091797,316.7786560058594 206.92318725585938,316.5906677246094,207.3697509765625,316.3885803222656,208.3333282470703,316 208.8408203125,315.79534912109375,209.3675079345703,315.59869384765625,209.90533447265625,315.3999938964844 210.45018005371094,315.1986999511719,211.00022888183594,315.0006408691406,211.54933166503906,314.79998779296875 212.0948944091797,314.60064697265625,212.63560485839844,314.4092102050781,213.6666717529297,314 214.15875244140625,313.8047180175781,214.6293182373047,313.6026306152344,215.08566284179688,313.40899658203125 215.52798461914062,313.2213134765625,215.956787109375,313.03778076171875,216.378662109375,312.87200927734375 216.78953552246094,312.7105407714844,217.19015502929688,312.5448913574219,218,312.3333435058594 218.397216796875,312.2295837402344,218.80242919921875,312.1639099121094,219.20899963378906,312.0963439941406 219.62109375,312.0278625488281,220.0429229736328,311.9647216796875,220.4720001220703,311.8773193359375 220.9157257080078,311.78692626953125,221.3838348388672,311.6977233886719,222.3333282470703,311.3333435058594 222.85296630859375,311.1339416503906,223.3862762451172,310.8605041503906,223.9683380126953,310.580322265625 224.59957885742188,310.2764587402344,225.2866668701172,309.9465026855469,226.05332946777344,309.62933349609375 226.88973999023438,309.2833251953125,227.80979919433594,308.9041442871094,230,308.3333435058594 231.25035095214844,308.0074768066406,232.62994384765625,307.7561340332031,234.11300659179688,307.5053405761719 235.69390869140625,307.2380065917969,237.37448120117188,306.9963073730469,239.1439971923828,306.74932861328125 240.9964599609375,306.49078369140625,242.9298095703125,306.24493408203125,247,305.6666564941406 249.129638671875,305.3641052246094,251.30950927734375,305.0332336425781,253.53399658203125,304.6946716308594 255.7948455810547,304.3505859375,258.0829162597656,303.9971618652344,260.3919982910156,303.6506652832031 262.7122497558594,303.302490234375,265.0341491699219,302.9443359375,269.6666564941406,302.3333435058594 271.9541320800781,302.0316467285156,274.2177734375,301.76544189453125,276.4496765136719,301.5233459472656 278.641845703125,301.2855529785156,280.7909851074219,301.07574462890625,282.8906555175781,300.8933410644531 284.9330139160156,300.7159118652344,286.9132385253906,300.5496826171875,290.6666564941406,300.3333435058594 292.4263916015625,300.2319030761719,294.109130859375,300.1646728515625,295.7156677246094,300.11431884765625 297.247802734375,300.0662841796875,298.7082824707031,300.0379638671875,300.0986633300781,300.0213317871094 301.42095947265625,300.0054931640625,302.6773376464844,300.0013427734375,305,300 306.07000732421875,299.9993896484375,307.0799865722656,300,308.0299987792969,300 308.9200134277344,300,309.75,300,310.5199890136719,300 311.2300109863281,300,311.8800048828125,300,313,300 313.47100830078125,300,313.88800048828125,300,314.2569885253906,300 314.5840148925781,300,314.875,300,315.135986328125,300 315.37298583984375,300,315.5920104980469,300,316,300 316.2003479003906,300,316.4026794433594,300,316.6090087890625,300 316.8213195800781,300,317.0416564941406,300,317.2720031738281,300 317.51434326171875,300,317.7706604003906,300,318.3333435058594,300 318.6426696777344,300,318.9679870605469,300,319.3053283691406,300 319.6506652832031,300,320,300,320.3493347167969,300 L 320.6946716308594,300 321.0320129394531,300"></path></g></svg>