<svg xmlns="http://www.w3.org/2000/svg" xmlns:xlink="http://www.w3.org/1999/xlink" width="640" height="480" id="svgcontent" overflow="visible" x="640" y="480" viewBox="0 0 640 480"><g><path fill="none" stroke="#000000" stroke-width="20" d="M290,177 C 290,168.6666717529297,290,167.7570037841797,290,166.82933044433594 290,165.8856658935547,290,164.92799377441406,290,163.9583282470703 290,162.97866821289062,290,161.99099731445312,290,160.99732971191406 290,159,289.9967041015625,157.9996337890625,290.0053405761719,156.99732971191406 290.0140075683594,155.99095153808594,290.0329895019531,154.97824096679688,290.0833435058594,153.9583282470703 290.1342468261719,152.92745971679688,290.2059631347656,151.88299560546875,290.3413391113281,150.82933044433594 290.6200256347656,148.66017150878906,290.870361328125,147.5538787841797,291.1440124511719,146.43466186523438 291.4215393066406,145.2996063232422,291.7502746582031,144.165771484375,292.125,143.0416717529297 292.4997253417969,141.91757202148438,292.90899658203125,140.80979919433594,293.3760070800781,139.73866271972656 294.2882080078125,137.6464080810547,294.8275451660156,136.67674255371094,295.3760070800781,135.7413330078125 295.9166259765625,134.81927490234375,296.5000915527344,133.9334716796875,297.125,133.0833282470703 297.7508850097656,132.2318572998047,298.420166015625,131.4024658203125,299.1440124511719,130.60533142089844 300.6314392089844,128.96731567382812,301.476318359375,128.19085693359375,302.3386535644531,127.40799713134766 303.2103576660156,126.61662292480469,304.1133728027344,125.8522720336914,305.0416564941406,125.125 305.96160888671875,124.40426635742188,306.8881530761719,123.71947479248047,307.83465576171875,123.11199951171875 309.6382141113281,121.95446014404297,310.54827880859375,121.50967407226562,311.4320068359375,121.11466979980469 312.2863464355469,120.73279571533203,313.1436767578125,120.41886901855469,314,120.16666412353516 314.8454895019531,119.91764831542969,315.70166015625,119.720458984375,316.5679931640625,119.57866668701172 318.326904296875,119.29078674316406,319.2423400878906,119.22643280029297,320.17333984375,119.18399810791016 321.1226501464844,119.1407241821289,322.09576416015625,119.1502914428711,323.0833435058594,119.25 324.0966796875,119.35230255126953,325.1388244628906,119.52719116210938,326.17333984375,119.85600280761719 328.3720703125,120.55484771728516,329.4598083496094,121.18655395507812,330.5679931640625,121.8586654663086 331.7239990234375,122.55977630615234,332.8673095703125,123.38155364990234,334,124.29166412353516 335.1668701171875,125.22924041748047,336.3178405761719,126.24980163574219,337.4320068359375,127.35466766357422 339.71514892578125,129.61878967285156,340.7712707519531,130.87403869628906,341.82666015625,132.1439971923828 342.8915710449219,133.42543029785156,343.92022705078125,134.75537109375,344.9166564941406,136.125 345.9204406738281,137.5047607421875,346.8951110839844,138.9203643798828,347.82666015625,140.37600708007812 349.7041015625,143.3096923828125,350.570068359375,144.8351287841797,351.42132568359375,146.37066650390625 352.2727966308594,147.90658569335938,353.0822448730469,149.4631805419922,353.8333435058594,151.0416717529297 354.5809326171875,152.61277770996094,355.28399658203125,154.195068359375,355.8853454589844,155.80267333984375 357.0716552734375,158.97410583496094,357.4947509765625,160.5928955078125,357.8840026855469,162.19200134277344 358.2674865722656,163.76734924316406,358.5718994140625,165.332763671875,358.8125,166.875 359.0474853515625,168.38108825683594,359.2253723144531,169.85494995117188,359.33599853515625,171.28799438476562 359.5451354980469,173.99688720703125,359.5523376464844,175.270751953125,359.5373229980469,176.48533630371094 359.52294921875,177.64833068847656,359.4611511230469,178.76512145996094,359.3333435058594,179.8333282470703 359.2096862792969,180.8668212890625,359.0389099121094,181.86866760253906,358.76934814453125,182.8213348388672 358.24078369140625,184.6892547607422,357.8132629394531,185.5680389404297,357.3680114746094,186.4320068359375 356.9175720214844,187.3060302734375,356.3924560546875,188.1595916748047,355.8125,189 355.218017578125,189.8614501953125,354.5621032714844,190.71621704101562,353.85198974609375,191.5679931640625 352.36083984375,193.3566131591797,351.52044677734375,194.24835205078125,350.6586608886719,195.1653289794922 349.7778625488281,196.10252380371094,348.86334228515625,197.03683471679688,347.9166564941406,197.9583282470703 346.9646911621094,198.88494873046875,345.9954833984375,199.7957000732422,344.9946594238281,200.6613311767578 343.0260925292969,202.3639678955078,342.0063781738281,203.1224822998047,341.0026550292969,203.861328125 340.014892578125,204.58840942382812,339.0220642089844,205.2783660888672,338.0416564941406,205.9583282470703 337.07269287109375,206.63035583496094,336.1064453125,207.28538513183594,335.170654296875,207.96533203125 333.3175048828125,209.3118133544922,332.4382019042969,210.03585815429688,331.5733337402344,210.76266479492188 330.71820068359375,211.48129272460938,329.89398193359375,212.20872497558594,329.0833435058594,212.9166717529297 328.2939758300781,213.60604858398438,327.53509521484375,214.2803955078125,326.7733459472656,214.8906707763672 325.3547058105469,216.02720642089844,324.65203857421875,216.48358154296875,323.9800109863281,216.8853302001953 323.35296630859375,217.26019287109375,322.75054931640625,217.57083129882812,322.1875,217.8333282470703 321.6767578125,218.07144165039062,321.2098693847656,218.26048278808594,320.79998779296875,218.4213409423828 320.1677551269531,218.66946411132812,319.9455261230469,218.74620056152344,319.8039855957031,218.82933044433594 319.71868896484375,218.8794403076172,319.70013427734375,218.93759155273438,319.75,218.9583282470703 319.84844970703125,218.99928283691406,320.01727294921875,218.99366760253906,320.2359924316406,218.99732971191406 320.833251953125,219.00730895996094,321.2088317871094,218.9987030029297,321.6373291015625,219.00267028808594 322.1218566894531,219.0071563720703,322.66546630859375,219.01780700683594,323.2708435058594,219.0416717529297 323.9414978027344,219.06809997558594,324.6803894042969,219.1068572998047,325.48931884765625,219.17066955566406 327.33477783203125,219.31626892089844,328.3721618652344,219.43873596191406,329.4800109863281,219.57066345214844 330.6488952636719,219.70985412597656,331.8670654296875,219.86915588378906,333.125,220.0416717529297 334.4137268066406,220.21841430664062,335.72210693359375,220.4061737060547,337.0400085449219,220.6026611328125 339.6675109863281,220.994384765625,340.95697021484375,221.19644165039062,342.2239990234375,221.4026641845703 343.46832275390625,221.6051788330078,344.6867980957031,221.8136444091797,345.875,222.0416717529297 347.0361328125,222.26449584960938,348.1668701171875,222.49560546875,349.2560119628906,222.77066040039062 351.3426818847656,223.29762268066406,352.3205261230469,223.62692260742188,353.2613220214844,223.97866821289062 354.1867370605469,224.3246612548828,355.0862731933594,224.7181396484375,355.9583435058594,225.1666717529297 356.8387451171875,225.61949157714844,357.7118225097656,226.12872314453125,358.5653381347656,226.71466064453125 360.3674011230469,227.9517822265625,361.2527770996094,228.71649169921875,362.16265869140625,229.51199340820312 363.0986022949219,230.33029174804688,364.0205078125,231.2036590576172,364.9166564941406,232.125 365.8180847167969,233.0517578125,366.6910705566406,234.00643920898438,367.49066162109375,235.00799560546875 369.0499267578125,236.96115112304688,369.6930847167969,237.98715209960938,370.28265380859375,239.00534057617188 370.86163330078125,240.00523376464844,371.3661804199219,241.0322723388672,371.7916564941406,242.0833282470703 372.2170715332031,243.13418579101562,372.5801086425781,244.2194366455078,372.8506774902344,245.34133911132812 373.4075012207031,247.65003967285156,373.5318603515625,248.88372802734375,373.6573486328125,250.138671875 373.7852783203125,251.41795349121094,373.8579406738281,252.7222442626953,373.8958435058594,254.0416717529297 373.93402099609375,255.370361328125,373.936279296875,256.703857421875,373.9093322753906,258.03466796875 373.8559875488281,260.6672058105469,373.7872009277344,261.9575500488281,373.7080078125,263.2293395996094 373.6297302246094,264.48626708984375,373.526123046875,265.72979736328125,373.375,266.9583435058594 373.2246398925781,268.1806640625,373.0411376953125,269.3976135253906,372.7720031738281,270.5973205566406 372.22967529296875,273.0150146484375,371.8121337890625,274.2068786621094,371.37066650390625,275.3973388671875 370.9252014160156,276.5986022949219,370.4148864746094,277.7862548828125,369.8541564941406,278.9583435058594 369.29083251953125,280.1358642578125,368.6827392578125,281.2968444824219,368.0226745605469,282.4293212890625 366.7052917480469,284.6896057128906,365.9701232910156,285.7664794921875,365.2213439941406,286.82666015625 364.47265625,287.8866882324219,363.6805725097656,288.9205322265625,362.8333435058594,289.9166564941406 361.9791564941406,290.9209289550781,361.0741271972656,291.9039001464844,360.0853271484375,292.82666015625 358.0521240234375,294.7240905761719,356.883544921875,295.5734558105469,355.690673828125,296.4266662597656 354.4781494140625,297.2939147949219,353.21258544921875,298.1183166503906,351.9166564941406,298.9166564941406 350.61517333984375,299.71844482421875,349.2926025390625,300.48602294921875,347.9626770019531,301.2266540527344 345.3435974121094,302.6852111816406,344.04541015625,303.36126708984375,342.7706604003906,304.02667236328125 341.5166931152344,304.68121337890625,340.2750244140625,305.3127746582031,339.0416564941406,305.9166564941406 337.82427978515625,306.5126953125,336.6142578125,307.08831787109375,335.4026794433594,307.6266784667969 333.0101318359375,308.6897888183594,331.80419921875,309.16552734375,330.6053466796875,309.6239929199219 329.42144775390625,310.0767517089844,328.2462158203125,310.49603271484375,327.0833435058594,310.875 325.9473571777344,311.24517822265625,324.8340148925781,311.5828552246094,323.7413330078125,311.8559875488281 321.6759948730469,312.3722839355469,320.6880187988281,312.52777099609375,319.7413330078125,312.6586608886719 318.8304138183594,312.78460693359375,317.9446105957031,312.865478515625,317.0833435058594,312.9166564941406 316.2431640625,312.9665832519531,315.4180603027344,312.9869689941406,314.6053466796875,312.9946594238281 313.00006103515625,313.00982666015625,312.1978759765625,313.00628662109375,311.3840026855469,312.98931884765625 310.5457763671875,312.9718322753906,309.6704406738281,312.9307861328125,308.75,312.8333435058594 307.7660217285156,312.72918701171875,306.707763671875,312.5721435546875,305.57598876953125,312.31732177734375 302.9839782714844,311.7337646484375,301.5364074707031,311.24493408203125,299.9786682128906,310.7120056152344 298.31646728515625,310.14337158203125,296.58258056640625,309.4859313964844,294.7916564941406,308.75 292.9368591308594,307.9878234863281,291.0473937988281,307.16259765625,289.1546630859375,306.24798583984375 285.3062744140625,304.38836669921875,283.4359130859375,303.3304138183594,281.5840148925781,302.26666259765625 279.75054931640625,301.2135009765625,277.9723205566406,300.130126953125,276.25,299.0416564941406 274.5750732421875,297.983154296875,272.97515869140625,296.93316650390625,271.45599365234375,295.90667724609375 268.65643310546875,294.0150146484375,267.41375732421875,293.1328125,266.2613220214844,292.31732177734375 265.1966247558594,291.56390380859375,264.2239990234375,290.8586730957031,263.3333435058594,290.2083435058594 L 262.5226745605469,289.6080017089844 261.7879943847656,289.0556640625 261.1253356933594,288.5493469238281"></path></g></svg>