<svg id="svgcontent" width="1280" height="960" x="1280" y="960" overflow="visible" xmlns="http://www.w3.org/2000/svg" xmlns:se="http://svg-edit.googlecode.com" xmlns:xlink="http://www.w3.org/1999/xlink" viewBox="0 0 640 480"><g><path fill="none" stroke="#000000" stroke-width="14" d="M261,170 C 260.4324951171875,170.92543029785156,259.8115539550781,171.97402954101562,259.1793212890625,173.03399658203125 258.5402526855469,174.10540771484375,257.881591796875,175.17758178710938,257.2083435058594,176.25 256.5322570800781,177.32693481445312,255.84506225585938,178.3999786376953,255.1473388671875,179.46600341796875 253.758056640625,181.588623046875,253.05233764648438,182.62991333007812,252.35000610351562,183.663330078125 251.65231323242188,184.68992614746094,250.9523468017578,185.70498657226562,250.25,186.7083282470703 249.55233764648438,187.70497131347656,248.85357666015625,188.69091796875,248.14999389648438,189.663330078125 246.75706481933594,191.5884552001953,246.05194091796875,192.5296630859375,245.35133361816406,193.4633331298828 244.65625,194.3896484375,243.9615020751953,195.30397033691406,243.2708282470703,196.2083282470703 242.58682250976562,197.1039581298828,241.90684509277344,197.9880828857422,241.23533630371094,198.8633270263672 239.9160614013672,200.58285522460938,239.27088928222656,201.4280242919922,238.6353302001953,202.26466369628906 238.00656127929688,203.09237670898438,237.38560485839844,203.91371154785156,236.7708282470703,204.7291717529297 236.16026306152344,205.53904724121094,235.55430603027344,206.34535217285156,234.9513397216797,207.14866638183594 233.74960327148438,208.74969482421875,233.15000915527344,209.5500030517578,232.5500030517578,210.35000610351562 231.95001220703125,211.14999389648438,231.35000610351562,211.9499969482422,230.75,212.75 230.14999389648438,213.5500030517578,229.5500030517578,214.35000610351562,228.9499969482422,215.14999389648438 227.74998474121094,216.74998474121094,227.14952087402344,217.54953002929688,226.55133056640625,218.35000610351562 225.953857421875,219.14952087402344,225.35903930664062,219.94879150390625,224.7708282470703,220.75 224.1843719482422,221.54881286621094,223.6029815673828,222.3470458984375,223.03533935546875,223.14999389648438 221.90835571289062,224.74415588378906,221.36912536621094,225.54795837402344,220.836669921875,226.3473358154297 220.3091278076172,227.1393280029297,219.79541015625,227.9278564453125,219.2916717529297,228.7083282470703 218.79542541503906,229.47720336914062,218.31202697753906,230.23590087890625,217.836669921875,230.97933959960938 216.9173583984375,232.4171142578125,216.47274780273438,233.1073760986328,216.0366668701172,233.77667236328125 215.6127166748047,234.42735290527344,215.19784545898438,235.0574493408203,214.7916717529297,235.6666717529297 214.39781188964844,236.25743103027344,214.0136260986328,236.8280029296875,213.6366729736328,237.3766632080078 212.92037963867188,238.4192352294922,212.57212829589844,238.90731811523438,212.23666381835938,239.37933349609375 211.912109375,239.8359832763672,211.59567260742188,240.2772979736328,211.2916717529297,240.7083282470703 210.99569702148438,241.1279754638672,210.7075653076172,241.5382537841797,210.43666076660156,241.94732666015625 209.9086151123047,242.74472045898438,209.66893005371094,243.1483154296875,209.43533325195312,243.5486602783203 209.2046356201172,243.94403076171875,208.98512268066406,244.33885192871094,208.7708282470703,244.7291717529297 208.559814453125,245.113525390625,208.35621643066406,245.4937744140625,208.15133666992188,245.8646697998047 207.75332641601562,246.58517456054688,207.55105590820312,246.9287567138672,207.3526611328125,247.26333618164062 207.15969848632812,247.5887451171875,206.96974182128906,247.90240478515625,206.7916717529297,248.2083282470703 206.62046813964844,248.50244140625,206.45697021484375,248.78460693359375,206.32066345214844,249.06333923339844 206.06956481933594,249.5768280029297,205.98646545410156,249.82659912109375,205.92066955566406,250.06466674804688 205.85806274414062,250.29119873046875,205.8173065185547,250.51339721679688,205.7916717529297,250.7291717529297 205.76675415039062,250.9388427734375,205.7565155029297,251.1454315185547,205.75267028808594,251.34866333007812 205.74508666992188,251.74993896484375,205.75,251.9498291015625,205.75,252.14866638183594 205.75,252.3455047607422,205.75,252.53933715820312,205.75,252.7291717529297 205.75,252.91400146484375,205.6983184814453,253.09556579589844,205.75,253.5833282470703 205.83145141601562,254.35220336914062,206.7425994873047,254.86460876464844,207.36849975585938,255.05450439453125 208.14060974121094,255.28875732421875,209.0635223388672,255.5058135986328,209.5693359375,255.6353302001953 211.2550811767578,256.0669860839844,211.86483764648438,256.23468017578125,212.49742126464844,256.40716552734375 213.15084838867188,256.5853271484375,213.8228759765625,256.7710266113281,214.51266479492188,256.9606628417969 215.21836853027344,257.1546936035156,217.416259765625,257.7515563964844,218.17149353027344,257.9498291015625 218.93492126464844,258.1502685546875,219.70652770996094,258.34808349609375,220.48599243164062,258.5393371582031 221.2701873779297,258.73175048828125,222.0598602294922,258.9176330566406,222.85450744628906,259.09283447265625 223.65054321289062,259.2683410644531,225.2491912841797,259.5878601074219,226.0503387451172,259.7284851074219 226.8518829345703,259.8691711425781,227.65847778320312,259.996337890625,228.47132873535156,260.114013671875 229.29116821289062,260.2326965332031,230.1217041015625,260.34161376953125,230.96434020996094,260.44549560546875 231.82037353515625,260.551025390625,233.58328247070312,260.75042724609375,234.49282836914062,260.85015869140625 235.41928100585938,260.9517517089844,236.36000061035156,261.052978515625,237.31134033203125,261.1606750488281 238.27099609375,261.2693176269531,239.23577880859375,261.3824768066406,240.2018280029297,261.5071716308594 241.16778564453125,261.6318359375,243.0841064453125,261.9119873046875,244.02850341796875,262.0713195800781 244.9654541015625,262.2294006347656,245.89312744140625,262.40118408203125,246.81399536132812,262.5753479003906 247.72946166992188,262.7485046386719,248.63900756835938,262.9263000488281,249.54550170898438,263.0973205566406 250.4483642578125,263.26763916015625,252.2492218017578,263.5882873535156,253.15016174316406,263.72833251953125 254.05056762695312,263.8682861328125,254.953857421875,263.9934997558594,255.8606719970703,264.10333251953125 256.7702331542969,264.2135009765625,257.685546875,264.30859375,258.607177734375,264.3883361816406 259.534912109375,264.4686279296875,261.41644287109375,264.5879821777344,262.37115478515625,264.6285095214844 263.3324890136719,264.6693420410156,264.298095703125,264.69580078125,265.2646789550781,264.7139892578125 266.2290954589844,264.73211669921875,267.18865966796875,264.7408142089844,268.1401672363281,264.7455139160156 269.0806579589844,264.7501525878906,270.9166564941406,264.75,271.80682373046875,264.75 272.6780090332031,264.75,273.5311584472656,264.75,274.3673400878906,264.75 275.1875,264.75,275.99267578125,264.75,276.7838439941406,264.75 277.56201171875,264.75,279.0833435058594,264.75,279.8281555175781,264.75 280.56201171875,264.75,281.2838439941406,264.75,281.99267578125,264.75 282.6875,264.75,283.3673400878906,264.75,284.0311584472656,264.75 284.6780090332031,264.75,285.9166564941406,264.75,286.50665283203125,264.75 287.07666015625,264.75,287.6266784667969,264.75,288.15667724609375,264.75 288.6666564941406,264.75,289.15667724609375,264.75,289.6266784667969,264.75 290.07666015625,264.75,290.9166564941406,264.75,291.3066711425781,264.75"></path><path fill="none" stroke="#000000" stroke-width="14" d="M284.75,221.75 C 282.5496520996094,225.05799865722656,282.337890625,225.57737731933594,281.9286804199219,226.76199340820312 281.703125,227.41490173339844,281.4788818359375,228.1116180419922,281.23565673828125,228.843994140625 280.9802551269531,229.61297607421875,280.4199523925781,231.25119018554688,280.107177734375,232.1143341064453 279.7840881347656,233.00592041015625,279.4413146972656,233.91744995117188,279.0886535644531,234.8473358154297 278.7303466796875,235.7921142578125,278.3638916015625,236.74571228027344,277.9981689453125,237.70632934570312 277.63189697265625,238.6683807373047,276.91485595703125,240.58267211914062,276.5713195800781,241.52816772460938 276.23223876953125,242.46136474609375,275.904052734375,243.3843231201172,275.5753479003906,244.29266357421875 275.2513427734375,245.18798828125,274.9292907714844,246.06910705566406,274.5973205566406,246.93116760253906 274.2705383300781,247.77976989746094,273.5899353027344,249.41966247558594,273.2286682128906,250.20716857910156 272.8724670410156,250.98367309570312,272.499755859375,251.7413787841797,272.1246643066406,252.48866271972656 271.75238037109375,253.23037719726562,271.37353515625,253.9637451171875,271.0026550292969,254.6981658935547 270.6322021484375,255.43174743652344,269.91082763671875,256.9140319824219,269.5716552734375,257.6715087890625 269.2308044433594,258.4327392578125,268.9063415527344,259.20501708984375,268.5966796875,259.9859924316406 268.28631591796875,260.76873779296875,267.99176025390625,261.5589294433594,267.711669921875,262.3544921875 267.4317321777344,263.1496276855469,266.9129943847656,264.7488708496094,266.67132568359375,265.54998779296875 266.4303283691406,266.3489074707031,266.2017517089844,267.1497497558594,265.975341796875,267.95001220703125 265.74908447265625,268.749755859375,265.5265197753906,269.5505065917969,265.2973327636719,270.3500061035156 265.06787109375,271.1505126953125,264.58648681640625,272.7510070800781,264.3288269042969,273.54998779296875 264.07049560546875,274.3510437011719,263.8009338378906,275.1496887207031,263.53533935546875,275.95001220703125 263.26995849609375,276.74969482421875,263.00628662109375,277.5484313964844,262.75982666015625,278.3500061035156 262.5143127441406,279.1484680175781,262.07513427734375,280.7480773925781,261.892822265625,281.5501708984375 261.71112060546875,282.3494873046875,261.5556335449219,283.15374755859375,261.4113464355469,283.9606628417969 261.2666015625,284.7701110839844,261.13525390625,285.58599853515625,261.0018310546875,286.40716552734375 260.86724853515625,287.2353210449219,260.58685302734375,288.91729736328125,260.4284973144531,289.7715148925781 260.2682189941406,290.6360168457031,260.0951232910156,291.50762939453125,259.91400146484375,292.385986328125 259.7314453125,293.2713317871094,259.5404357910156,294.1609191894531,259.3454895019531,295.05450439453125 259.1497802734375,295.9515686035156,258.7498474121094,297.7499694824219,258.5501708984375,298.6495056152344 258.3511657714844,299.54595947265625,258.1538391113281,300.43634033203125,257.9606628417969,301.3179931640625 257.7701721191406,302.1873474121094,257.58477783203125,303.0417175292969,257.40716552734375,303.8785095214844 257.234130859375,304.6937561035156,256.9154357910156,306.249755859375,256.7713317871094,306.9853210449219 256.6328125,307.6924133300781,256.5037841796875,308.37420654296875,256.3753356933594,309.0313415527344 256.2510986328125,309.6668701171875,256.1282958984375,310.2828063964844,255.99732971191406,310.87933349609375 255.86953735351562,311.4614562988281,255.58839416503906,312.5848083496094,255.4286651611328,313.1283264160156 255.27099609375,313.6648254394531,255.0997772216797,314.18914794921875,254.92466735839844,314.7033386230469 254.7523956298828,315.20916748046875,254.57513427734375,315.7032775878906,254.4026641845703,316.1883239746094 254.23379516601562,316.66326904296875,253.91371154785156,317.5823974609375,253.77149963378906,318.0286560058594 253.63243103027344,318.465087890625,253.504638671875,318.8966369628906,253.38600158691406,319.3246765136719 253.268310546875,319.7492980957031,253.15879821777344,320.17486572265625,253.05450439453125,320.6026611328125 252.949462890625,321.0335388183594,252.6442413330078,322.3702697753906,252.45449829101562,323.3071594238281 252.35765075683594,323.785400390625,252.16981506347656,324.75836181640625,252.03533935546875,325.7513427734375 251.90037536621094,326.7479248046875,251.83042907714844,327.7484130859375,251.80715942382812,328.2455139160156 251.76113891601562,329.228759765625,251.753173828125,330.1928405761719,251.75132751464844,330.6646728515625 251.74598693847656,332.0281677246094,251.76107788085938,332.88427734375,251.7291717529297,333.6875 251.68582153320312,334.779052734375,251.52867126464844,335.70684814453125,251.3246612548828,336.46734619140625"></path></g></svg>