<svg id="svgcontent" width="1280" height="960" x="1280" y="960" overflow="visible" xmlns="http://www.w3.org/2000/svg" xmlns:se="http://svg-edit.googlecode.com" xmlns:xlink="http://www.w3.org/1999/xlink" viewBox="0 0 640 480"><g><path fill="none" stroke="#000000" stroke-width="16" d="M294.25,160.75 C 292.70709228515625,160.74549865722656,291.91705322265625,160.76161193847656,290.75,160.5833282470703 290.14306640625,160.49061584472656,289.2118835449219,160.23281860351562,288.5356750488281,160.1026611328125 287.4217529296875,159.88824462890625,286.5799560546875,159.8227081298828,285.6780090332031,159.78599548339844 284.7291259765625,159.74737548828125,284.2409973144531,159.75225830078125,282.75,159.75 282.2496643066406,159.74925231933594,281.2409973144531,159.75,280.7286682128906,159.75 279.6780090332031,159.75,279.13568115234375,159.75022888183594,277.4166564941406,159.75 276.8066711425781,159.74990844726562,276.1766357421875,159.75372314453125,274.8566589355469,159.7393341064453 274.1666259765625,159.7318115234375,273.4565734863281,159.71713256835938,272.7266540527344,159.69284057617188 271.9765319824219,159.66787719726562,270.4164123535156,159.586669921875,269.607177734375,159.52867126464844 268.7804260253906,159.46942138671875,267.9400939941406,159.39797973632812,267.0886535644531,159.3246612548828 266.2290954589844,159.25064086914062,265.36480712890625,159.1733856201172,264.4981689453125,159.1026611328125 263.6328125,159.03204345703125,261.9168701171875,158.91238403320312,261.0715026855469,158.8715057373047 260.2355041503906,158.83108520507812,259.4072265625,158.80421447753906,258.58599853515625,158.78599548339844 257.7709045410156,158.76791381835938,256.9606628417969,158.75917053222656,256.1545104980469,158.75450134277344 255.35133361816406,158.74984741210938,253.75,158.75,252.95016479492188,158.75 252.15133666992188,158.75,251.35450744628906,158.75,250.5606689453125,158.75 249.7708282470703,158.75,248.98599243164062,158.75,248.20716857910156,158.75 247.43533325195312,158.75,245.9166717529297,158.75,245.1718292236328,158.75 244.43800354003906,158.75,243.71617126464844,158.75,243.00733947753906,158.75 242.3125,158.75,241.63265991210938,158.75,240.9688262939453,158.75 239.0833282470703,158.75,238.4933319091797,158.75,237.92333984375,158.75 236.8433380126953,158.75,236.3333282470703,158.75,235.3733367919922,158.75 234.0833282470703,158.75,233.32200622558594,158.75,232.3125,158.75 231.71617126464844,158.75,230.4340057373047,158.75,229.75,158.75 228.5833282470703,158.75,227.79733276367188,158.75,226.97532653808594,158.75 225.9166717529297,158.75,225.20266723632812,158.75,224.29733276367188,158.75 223.3286590576172,158.75,222.52467346191406,158.75,221.70266723632812,158.75 220.67166137695312,158.75,219.7916717529297,158.75,218.9166717529297,158.75 218.05450439453125,158.75,217.14999389648438,158.75,216.25,158.75 215.35000610351562,158.75,214.43649291992188,158.75,213.69400024414062,158.75 212.697998046875,158.75,212.07400512695312,158.7499237060547,211.10800170898438,158.75 210.01466369628906,158.75009155273438,208.8783416748047,158.6676025390625,208.81466674804688,159.39666748046875 208.73512268066406,160.3074493408203,209.6692352294922,160.97305297851562,210.3333282470703,161.75 210.8625030517578,162.3690948486328,211.4560546875,162.99842834472656,211.7653350830078,163.52066040039062 212.44944763183594,164.6758270263672,212.62806701660156,165.4287109375,212.83934020996094,166.20733642578125 213.0636749267578,167.03407287597656,213.2532196044922,167.9159698486328,213.4499969482422,168.8353271484375 213.6533203125,169.78529357910156,213.75096130371094,170.2706298828125,213.9499969482422,171.25450134277344 214.0504913330078,171.75123596191406,214.3506622314453,173.2501983642578,214.4499969482422,173.75267028808594 214.6513214111328,174.7710723876953,214.85121154785156,175.82177734375,214.9499969482422,176.3643341064453 215.05123901367188,176.92044067382812,215.3518524169922,178.69252014160156,215.44866943359375,179.3193359375 215.5475616455078,179.9595184326172,215.64822387695312,180.6101837158203,215.81399536132812,181.93533325195312 215.89730834960938,182.60128784179688,215.97784423828125,183.26620483398438,216.0833282470703,184.5833282470703 216.13494873046875,185.22801208496094,216.19577026367188,186.49273681640625,216.21400451660156,187.11399841308594 216.23207092285156,187.72909545898438,216.2467498779297,188.94549560546875,216.24867248535156,189.5486602783203 216.25250244140625,190.75,216.25,191.9499969482422,216.25,192.5500030517578 216.25,193.14999389648438,216.25,194.35000610351562,216.25,194.9499969482422 216.25,195.5500030517578,216.25,197.35000610351562,216.25,197.9499969482422 216.25,198.5500030517578,216.25,199.75,216.25,200.35000610351562 216.25,200.9499969482422,216.25,202.75,216.25,203.35000610351562 216.25,203.9499969482422,216.25,205.14999389648438,216.25,205.75 216.25,206.35000610351562,216.25,207.5500030517578,216.25,208.75 216.25,209.34983825683594,216.25,210.54550170898438,216.25,211.1393280029297 216.25,211.7291717529297,216.24996948242188,212.89283752441406,216.25,213.46466064453125 216.25009155273438,215.1284942626953,216.2456512451172,215.66473388671875,216.2606658935547,216.71400451660156 216.26803588867188,217.22921752929688,216.2985076904297,218.24606323242188,216.3353271484375,218.74867248535156 216.44546508789062,220.251953125,216.52890014648438,220.74942016601562,216.6753387451172,221.7393341064453 216.81964111328125,222.7147674560547,216.9257354736328,223.1893310546875,217.0833282470703,224.5833282470703 217.18260192871094,225.46148681640625,217.2217559814453,226.30311584472656,217.2393341064453,227.10333251953125 217.2560272216797,227.8632049560547,217.25,228.92816162109375,217.25,229.89266967773438 217.25,230.73117065429688,217.2144012451172,231.7801513671875,217.25,232.54733276367188 217.29270935058594,233.46763610839844,218.0848846435547,233.7132110595703,218.8125,233.1875 219.33230590820312,232.81195068359375,220.3041229248047,231.9731903076172,220.97933959960938,231.47799682617188 221.35169982910156,231.2049102783203,222.1730499267578,230.63360595703125,222.62466430664062,230.3473358154297 224.0782012939453,229.4259490966797,224.62008666992188,229.14649963378906,225.16883850097656,228.85000610351562 225.73074340820312,228.54640197753906,226.9060821533203,227.94744873046875,227.5161590576172,227.64999389648438 228.13674926757812,227.347412109375,229.4158172607422,226.7481231689453,230.07167053222656,226.4499969482422 230.73580932617188,226.14810180664062,231.41087341308594,225.8481903076172,232.09666442871094,225.5500030517578 232.79087829589844,225.24815368652344,233.49380493164062,224.94305419921875,234.93666076660156,224.35000610351562 236.4137725830078,223.7428741455078,237.17027282714844,223.44760131835938,237.9340057373047,223.1526641845703 238.7016143798828,222.85623168945312,239.47373962402344,222.56689453125,240.25,222.2916717529297 241.0231170654297,222.01756286621094,241.794189453125,221.75418090820312,242.5659942626953,221.52066040039062 244.0774383544922,221.06336975097656,244.8264923095703,220.88580322265625,245.56199645996094,220.7220001220703 246.28225708007812,220.5615997314453,246.9916229248047,220.42648315429688,247.6875,220.3125 248.3663787841797,220.2012939453125,249.03009033203125,220.1066436767578,249.67799377441406,220.03799438476562 251.5041961669922,219.844482421875,252.07785034179688,219.83119201660156,253.16732788085938,219.77532958984375 253.68743896484375,219.7486572265625,254.68646240234375,219.7259521484375,256.0833435058594,219.5833282470703 256.52935791015625,219.5377960205078,257.3890075683594,219.40098571777344,258.2083435058594,219.25 258.9889831542969,219.10614013671875,260.0802001953125,218.88014221191406,261.09283447265625,218.81166076660156 261.72802734375,218.76870727539062,262.6578369140625,218.7875213623047,263.8500061035156,219.03533935546875 264.4556884765625,219.16123962402344,265.35089111328125,219.45179748535156,266.25,219.75 267.1463928222656,220.0473175048828,267.7349548339844,220.23434448242188,268.5646667480469,220.5500030517578 269.5733947753906,220.9337615966797,270.2754821777344,221.2534942626953,270.9339904785156,221.72067260742188 271.977783203125,222.46119689941406,272.479248046875,223.00726318359375,273.024658203125,223.53533935546875 273.5699462890625,224.06329345703125,274.3286437988281,224.82867431640625,275.024658203125,225.52467346191406 275.475341796875,225.975341796875,276.4185485839844,226.914794921875,276.9339904785156,227.43533325195312 277.4773254394531,227.98402404785156,278.03607177734375,228.55039978027344,278.5660095214844,229.15133666992188 279.3455810546875,230.03538513183594,279.80419921875,230.6466064453125,280.2291564941406,231.2708282470703 280.6571044921875,231.89942932128906,281.2549743652344,232.91390991210938,281.6499938964844,233.63400268554688 282.05511474609375,234.37254333496094,282.44287109375,235.12855529785156,282.8500061035156,235.86599731445312 283.43988037109375,236.93441772460938,283.8475341796875,237.60183715820312,284.2708435058594,238.25 284.70013427734375,238.9073028564453,285.4181213378906,239.9156036376953,285.9339904785156,240.6366729736328 286.4768981933594,241.3955535888672,286.7602233886719,241.78494262695312,287.2973327636719,242.61166381835938 287.5712585449219,243.03329467773438,288.3348083496094,244.3686065673828,288.5660095214844,244.836669921875 289.0372009277344,245.79055786132812,289.2513732910156,246.29107666015625,289.7026672363281,247.31166076660156 289.9346923828125,247.83636474609375,290.4152526855469,248.9173126220703,290.93267822265625,250.03533935546875 291.1974792480469,250.6074981689453,291.475830078125,251.1810760498047,291.9886779785156,252.3606719970703 292.24578857421875,252.95208740234375,292.5138244628906,253.53977966308594,292.9166564941406,254.75 293.31219482421875,255.938232421875,293.443115234375,256.54376220703125,293.5780029296875,257.13934326171875 293.84332275390625,258.3107604980469,293.9421691894531,258.8926086425781,294.0473327636719,259.46466064453125 294.3531494140625,261.1280517578125,294.453369140625,261.6651611328125,294.63934326171875,262.72467041015625 294.7314758300781,263.2496032714844,294.90203857421875,264.301513671875,294.96466064453125,264.8340148925781 295.1568603515625,266.4684143066406,295.1698303222656,267.03509521484375,295.1928405761719,267.607177734375 295.2396545410156,268.7704772949219,295.2416687011719,269.3606262207031,295.2455139160156,269.9544982910156 295.2571105957031,271.7499694824219,295.25079345703125,272.3498229980469,295.24932861328125,272.94866943359375 295.2464294433594,274.13934326171875,295.24481201171875,274.729248046875,295.2214050292969,275.892822265625 295.20989990234375,276.4647216796875,295.1772155761719,277.583984375,295.1053466796875,278.6673278808594 295.0698547363281,279.20220947265625,294.96563720703125,280.2718200683594,294.8906555175781,280.81134033203125 294.7363586425781,281.9215393066406,294.50653076171875,283.0848083496094,294.36773681640625,283.6928405761719 294.07781982421875,284.9630126953125,293.8988342285156,285.6120910644531,293.71875,286.2708435058594 293.536865234375,286.9361267089844,293.3468322753906,287.6029052734375,293.14801025390625,288.267333984375 292.5602111816406,290.2316589355469,292.35107421875,290.86590576171875,292.1409912109375,291.4928283691406 291.9324035644531,292.1152648925781,291.72723388671875,292.7366638183594,291.23565673828125,293.94549560546875 290.98876953125,294.5525817871094,290.42364501953125,295.753662109375,290.10699462890625,296.3500061035156 289.786376953125,296.95379638671875,289.08160400390625,298.1522216796875,288.7083435058594,298.75 288.332275390625,299.3522644042969,287.9427490234375,299.9511413574219,287.5473327636719,300.54998779296875 286.75347900390625,301.7522888183594,286.35003662109375,302.3500061035156,285.95001220703125,302.95001220703125 285.5500183105469,303.54998779296875,284.75,304.75,284.3500061035156,305.3500061035156 283.95001220703125,305.95001220703125,283.5503845214844,306.55023193359375,282.75,307.75 282.349853515625,308.34979248046875,281.95074462890625,308.9496765136719,281.5409851074219,309.5409851074219 281.132080078125,310.13104248046875,280.2856750488281,311.2841796875,279.8356628417969,311.8356628417969 279.38690185546875,312.3855895996094,278.4252014160156,313.4256896972656,277.9073181152344,313.9068298339844 277.3903503417969,314.38714599609375,276.856689453125,314.8467712402344,275.75,315.6875 275.2064514160156,316.1004333496094,274.65618896484375,316.4850158691406,274.1180114746094,316.86199951171875 273.0849609375,317.58563232421875,272.11993408203125,318.2660827636719,271.65533447265625,318.5883483886719 270.7536926269531,319.2137145996094,270.3141174316406,319.52825927734375,269.3819885253906,320.0633239746094 268.4310302734375,320.60919189453125,267.3832092285156,321.0694885253906,266.8401794433594,321.288330078125 266.2911376953125,321.50958251953125,265.1661071777344,321.9077453613281,264.5981750488281,322.0883483886719 264.0340270996094,322.2677307128906,262.3725280761719,322.73260498046875,261.8353271484375,322.8646545410156 260.7879638671875,323.1221008300781,260.2716369628906,323.2329406738281,259.2544860839844,323.44549560546875 258.7517395019531,323.550537109375,257.2503356933594,323.85150146484375,256.75,323.94866943359375 255.7506561279297,324.1427307128906,254.75112915039062,324.3215026855469,254.25,324.392822265625 252.75303649902344,324.6058349609375,252.2508087158203,324.6424865722656,251.25,324.6928405761719 250.2506103515625,324.7431335449219,249.75003051757812,324.7433166503906,248.75,324.7486572265625 247.75001525878906,324.7539978027344,246.74598693847656,324.7510681152344,246.2364959716797,324.7455139160156 245.18743896484375,324.7341003417969,244.64137268066406,324.726806640625,243.49400329589844,324.6646728515625 242.24917602539062,324.5972595214844,241.58534240722656,324.53302001953125,240.89666748046875,324.4620056152344 240.1869659423828,324.3888244628906,238.72787475585938,324.19525146484375,237.99000549316406,324.06732177734375 237.24945068359375,323.9389343261719,236.5076141357422,323.8121643066406,235.0833282470703,323.4166564941406 234.38851928710938,323.22369384765625,233.72021484375,322.9888916015625,233.07333374023438,322.74017333984375 232.440185546875,322.4967041015625,231.24166870117188,321.96820068359375,230.67333984375,321.69818115234375 230.1217041015625,321.43609619140625,228.59320068359375,320.6707763671875,228.1193389892578,320.4353332519531 227.2120361328125,319.98455810546875,226.33676147460938,319.5576171875,225.90184020996094,319.3544921875 224.58761596679688,318.74072265625,224.12913513183594,318.54925537109375,223.2018280029297,318.1499938964844 222.27114868164062,317.749267578125,221.80450439453125,317.5649108886719,220.91932678222656,317.1499938964844 219.68309020996094,316.5705261230469,218.95382690429688,316.1620178222656,218.2916717529297,315.7291564941406 217.6483917236328,315.3086242675781,216.7423858642578,314.592041015625,216.15133666992188,314.0660095214844 215.55282592773438,313.5333557128906,214.98391723632812,312.9774475097656,214.43533325195312,312.4339904785156 213.66842651367188,311.67425537109375,212.975341796875,310.975341796875,212.52467346191406,310.524658203125 211.58335876464844,309.58331298828125,211.06600952148438,309.0660095214844,210.52467346191406,308.524658203125 209.975341796875,307.9753112792969,209.42811584472656,307.4398193359375,208.6718292236328,306.6715087890625 208.00209045410156,305.9911193847656,207.356201171875,305.4112243652344,206.99282836914062,304.5498352050781 206.6623992919922,303.7665100097656,206.60263061523438,302.5784912109375,206.4633331298828,302.0660095214844 206.2390899658203,301.24102783203125,205.8633270263672,300.4339904785156,205.267333984375,299.4366760253906 L 204.7708282470703,298.7916564941406 204.3193359375,298.2366638183594"></path></g></svg>