<svg id="svgcontent" width="640" height="480" x="640" y="480" overflow="visible" xmlns="http://www.w3.org/2000/svg" xmlns:se="http://svg-edit.googlecode.com" xmlns:xlink="http://www.w3.org/1999/xlink" viewBox="0 0 640 480"><g ><path fill="none" stroke="#000000" stroke-width="18" d="M374.5,99.5 C 371.52667236328125,99.5,370.8066711425781,99.5,370.00665283203125,99.5 369.1266784667969,99.5,368.1666564941406,99.5,367.1239929199219,99.5 366.5676574707031,99.5,365.375,99.5,364.73468017578125,99.5 364.0623474121094,99.5,363.3559875488281,99.49968719482422,361.8333435058594,99.5 361.0140075683594,99.50016784667969,360.15863037109375,99.49986267089844,359.2713317871094,99.50900268554688 358.35595703125,99.5184326171875,357.4164733886719,99.53601837158203,356.45733642578125,99.5719985961914 355.48175048828125,99.60859680175781,354.4920959472656,99.64192199707031,352.5,99.83333587646484 351.4985046386719,99.9295654296875,350.4973449707031,100.06318664550781,349.5,100.2413330078125 348.4971008300781,100.42047119140625,347.49432373046875,100.6464614868164,346.5,100.93733215332031 345.49383544921875,101.23167419433594,344.4677429199219,101.54512786865234,342.5,102.5 341.4820556640625,102.99396514892578,340.4892272949219,103.59806060791016,339.5,104.25199890136719 338.48870849609375,104.92053985595703,337.49139404296875,105.65560150146484,336.5,106.43599700927734 335.4911193847656,107.23017120361328,334.4836730957031,108.06021881103516,332.5,109.83333587646484 331.4916076660156,110.73470306396484,330.4920959472656,111.67052459716797,329.5,112.6413345336914 328.4919128417969,113.62779998779297,327.4892272949219,114.65669250488281,326.5,115.73733520507812 325.4888610839844,116.84191131591797,324.4588317871094,117.98209381103516,322.5,120.5 321.4782409667969,121.81336975097656,320.486328125,123.21066284179688,319.5,124.66999816894531 318.48583984375,126.17052459716797,317.4869384765625,127.7420654296875,316.5,129.3800048828125 315.4865417480469,131.0619659423828,314.4637756347656,132.80055236816406,312.5,136.5 311.4811096191406,138.41943359375,310.49066162109375,140.41012573242188,309.5,142.45199584960938 308.490478515625,144.53274536132812,307.4932556152344,146.66357421875,306.5,148.83599853515625 305.4931335449219,151.0382080078125,304.48724365234375,153.27308654785156,302.5,157.8333282470703 301.494873046875,160.13986206054688,300.4990234375,162.4631805419922,299.5360107421875,164.80532836914062 298.5736389160156,167.14590454101562,297.64605712890625,169.49240112304688,296.7879943847656,171.84933471679688 295.93682861328125,174.18731689453125,295.0823669433594,176.50396728515625,293.8333435058594,181.1666717529297 293.2230224609375,183.44503784179688,292.7553405761719,185.7293243408203,292.3663330078125,188.003662109375 291.97943115234375,190.2657470703125,291.6858215332031,192.539306640625,291.45733642578125,194.82266235351562 291.2276916503906,197.1175079345703,291.0445556640625,199.43687438964844,290.8333435058594,204.1666717529297 290.7253723144531,206.58489990234375,290.6625061035156,209.03848266601562,290.6458435058594,211.51966857910156 290.6290283203125,214.02259826660156,290.66265869140625,216.54263305664062,290.7733459472656,219.07066345214844 290.8843078613281,221.60487365722656,290.9971923828125,224.14732360839844,291.6666564941406,229.1666717529297 291.9996643066406,231.66334533691406,292.4703674316406,234.12738037109375,293.0046691894531,236.5586700439453 293.53466796875,238.97032165527344,294.1449279785156,241.33944702148438,294.8106689453125,243.6626739501953 295.4673156738281,245.9542236328125,296.1492614746094,248.2010955810547,297.6666564941406,252.5 298.4002990722656,254.57850646972656,299.1739501953125,256.59210205078125,299.97515869140625,258.5480041503906 300.76226806640625,260.469482421875,301.58563232421875,262.3420715332031,302.4546813964844,264.16400146484375 303.3149108886719,265.9674987792969,304.1849365234375,267.7542419433594,306.1666564941406,271.1666564941406 307.1577453613281,272.8732604980469,308.22625732421875,274.5359191894531,309.3376770019531,276.16766357421875 310.44775390625,277.7974548339844,311.6084289550781,279.38775634765625,312.8146667480469,280.9346618652344 314.0159606933594,282.4752197265625,315.2295227050781,283.99798583984375,317.8333435058594,286.8333435058594 319.1197204589844,288.234130859375,320.4532165527344,289.5632629394531,321.79632568359375,290.8443298339844 323.1175231933594,292.1044921875,324.4486999511719,293.30279541015625,325.77734375,294.44134521484375 327.071044921875,295.5499267578125,328.33831787109375,296.6127014160156,330.8333435058594,298.5 332.0027160644531,299.3845520019531,333.1468811035156,300.192138671875,334.2533264160156,300.9389953613281 335.3072509765625,301.650390625,336.3278503417969,302.3006896972656,337.3133239746094,302.8919982910156 338.2481994628906,303.45294189453125,339.14007568359375,303.976318359375,340.8333435058594,304.8333435058594 341.6081237792969,305.2254943847656,342.35455322265625,305.5657958984375,343.0713195800781,305.8623352050781 343.7522277832031,306.14404296875,344.41326904296875,306.3856506347656,345.0573425292969,306.5853271484375 345.67889404296875,306.77801513671875,346.2890625,306.9537353515625,347.5,307.1666564941406 348.09759521484375,307.271728515625,348.69940185546875,307.3363037109375,349.29998779296875,307.38568115234375 349.89947509765625,307.4349670410156,350.4998779296875,307.46234130859375,351.1000061035156,307.4786682128906 351.6999206542969,307.4949951171875,352.29998779296875,307.49932861328125,353.5,307.5 354.1006774902344,307.5003356933594,354.7054748535156,307.50042724609375,355.3179931640625,307.48199462890625 355.94287109375,307.46319580078125,356.5843811035156,307.4270324707031,357.2439880371094,307.3559875488281 357.929931640625,307.2821044921875,358.650390625,307.1986389160156,360.1666564941406,306.8333435058594 360.99151611328125,306.6346130371094,361.8468322753906,306.3661804199219,362.7286682128906,306.0443420410156 363.6500549316406,305.70806884765625,364.5917663574219,305.3092041015625,365.54266357421875,304.8413391113281 366.5270690917969,304.35699462890625,367.5439453125,303.84075927734375,369.5,302.5 370.52069091796875,301.8003845214844,371.5102844238281,301.00042724609375,372.4909973144531,300.14801025390625 373.4920959472656,299.27789306640625,374.47027587890625,298.3451232910156,375.4280090332031,297.364013671875 376.39788818359375,296.3704528808594,377.3624267578125,295.3490905761719,379.1666564941406,293.1666564941406 380.0735168457031,292.0697021484375,380.94073486328125,290.9314880371094,381.77667236328125,289.7586669921875 382.6210021972656,288.5740966796875,383.4335021972656,287.3436584472656,384.2066650390625,286.0626525878906 384.9939270019531,284.7582702636719,385.783447265625,283.4129943847656,387.1666564941406,280.5 387.8861389160156,278.98480224609375,388.5421447753906,277.3950500488281,389.16766357421875,275.7569885253906 389.8038635253906,274.0909729003906,390.39288330078125,272.3806457519531,390.9346618652344,270.635986328125 391.48040771484375,268.8785095214844,392.0123291015625,267.1053161621094,392.8333435058594,263.5 393.2416076660156,261.7071533203125,393.5713806152344,259.9107666015625,393.8578186035156,258.12701416015625 394.1405029296875,256.3665771484375,394.3692626953125,254.6266632080078,394.5493469238281,252.91600036621094 394.7253112792969,251.24449157714844,394.8825988769531,249.6139678955078,395,246.5 395.055419921875,245.02964782714844,395.0563659667969,243.61143493652344,395.0060119628906,242.2429962158203 394.9571533203125,240.91519165039062,394.855712890625,239.62222290039062,394.68798828125,238.36399841308594 394.5226745605469,237.12387084960938,394.3382263183594,235.88970947265625,393.6666564941406,233.5 393.3264465332031,232.28939819335938,392.8869934082031,231.08973693847656,392.39617919921875,229.89100646972656 391.8965148925781,228.67062377929688,391.327392578125,227.45083618164062,390.7026672363281,226.22799682617188 390.06396484375,224.9778289794922,389.3831481933594,223.7106170654297,387.8333435058594,221.1666717529297 387.030029296875,219.8480987548828,386.1691589355469,218.53025817871094,385.2713317871094,217.21266174316406 384.3664855957031,215.88478088378906,383.4285583496094,214.57437133789062,382.45733642578125,213.29466247558594 381.4937438964844,212.02500915527344,380.5389709472656,210.7703094482422,378.5,208.5 377.5215759277344,207.41053771972656,376.5162353515625,206.4059600830078,375.51800537109375,205.46099853515625 374.5530700683594,204.5475616455078,373.59039306640625,203.69998168945312,372.6440124511719,202.9080047607422 371.7353515625,202.14759826660156,370.8503723144531,201.4374542236328,369.1666564941406,200.1666717529297 368.39044189453125,199.58082580566406,367.64642333984375,199.0406494140625,366.9376525878906,198.5376739501953 366.267578125,198.06214904785156,365.6272277832031,197.62164306640625,365.0146789550781,197.21466064453125 364.4344482421875,196.8291473388672,363.88177490234375,196.466552734375,362.8333435058594,195.8333282470703 362.3453369140625,195.53857421875,361.8700866699219,195.2668914794922,361.40533447265625,195.0143280029297 360.95263671875,194.768310546875,360.501953125,194.5376434326172,360.0493469238281,194.3213348388672 359.5965881347656,194.10494995117188,359.1361999511719,193.89239501953125,358.1666564941406,193.5 357.6591491699219,193.2946014404297,357.1301574707031,193.0977783203125,356.5856628417969,192.89999389648438 356.0288391113281,192.69772338867188,355.4587707519531,192.498779296875,354.878662109375,192.3000030517578 354.2914123535156,192.09877014160156,353.6975402832031,191.89938354492188,352.5,191.5 351.9004211425781,191.30003356933594,351.30328369140625,191.10081481933594,350.7090148925781,190.90899658203125 350.1219177246094,190.71949768066406,349.5428161621094,190.53768920898438,348.97198486328125,190.3719940185547 348.41546630859375,190.21044921875,347.87548828125,190.04843139648438,346.8333435058594,189.8333282470703 346.34503173828125,189.7325439453125,345.87139892578125,189.66439819335938,345.4143371582031,189.6143341064453 344.97259521484375,189.56594848632812,344.5418395996094,189.5377960205078,344.121337890625,189.52133178710938 343.7091369628906,189.5052032470703,343.30267333984375,189.5013427734375,342.5,189.5 342.1000061035156,189.49932861328125,341.70001220703125,189.5,341.29998779296875,189.5 340.8999938964844,189.5,340.5,189.5,340.1000061035156,189.5 339.70001220703125,189.5,339.29998779296875,189.5,338.5,189.5 338.09967041015625,189.5,337.69732666015625,189.5,337.2909851074219,189.5 336.878662109375,189.5,336.4583435058594,189.5,336.02801513671875,189.5 335.5856628417969,189.5,335.12933349609375,189.4996795654297,334.1666564941406,189.5 333.65667724609375,189.5001678466797,333.12664794921875,189.49989318847656,332.57666015625,189.50900268554688 332.006591796875,189.51844787597656,331.4163818359375,189.53636169433594,330.8066711425781,189.57200622558594 330.17633056640625,189.60885620117188,329.523681640625,189.6473846435547,328.1666564941406,189.8333282470703 327.4552307128906,189.93081665039062,326.7283020019531,190.0653533935547,325.98565673828125,190.21434020996094 325.2268981933594,190.3665771484375,324.4576721191406,190.53878784179688,323.6786804199219,190.72132873535156 322.8902893066406,190.9060821533203,322.0970458984375,191.10157775878906,320.5,191.5 319.7005310058594,191.69944763183594,318.90496826171875,191.89854431152344,318.1180114746094,192.10000610351562 317.3423156738281,192.298583984375,316.5824890136719,192.49688720703125,315.843994140625,192.6999969482422 315.1278381347656,192.89697265625,314.4356689453125,193.0823211669922,313.1666564941406,193.5 312.5836181640625,193.69190979003906,312.0415344238281,193.8938446044922,311.53765869140625,194.10000610351562 311.06292724609375,194.2942352294922,310.6221008300781,194.4941864013672,310.21466064453125,194.6999969482422 309.82952880859375,194.89453125,309.46649169921875,195.08511352539062,308.8333435058594,195.5 308.5380554199219,195.69349670410156,308.2649841308594,195.8988494873047,308.0053405761719,196.10899353027344 307.7475891113281,196.31759643554688,307.49798583984375,196.53948974609375,307.24932861328125,196.77200317382812 306.9925537109375,197.01210021972656,306.7313232421875,197.26998901367188,306.1666564941406,197.8333282470703 305.8569641113281,198.14230346679688,305.5320129394531,198.46800231933594,305.1946716308594,198.80532836914062 304.8493347167969,199.15066528320312,304.5,199.5,304.1506652832031,199.84933471679688 303.8053283691406,200.19467163085938,303.468017578125,200.53201293945312,302.8333435058594,201.1666717529297 302.54266357421875,201.45733642578125,302.26800537109375,201.73199462890625,302.0053405761719,201.99465942382812 301.75067138671875,202.24932861328125,301.5,202.5,301.24932861328125,202.75067138671875 300.9946594238281,203.00534057617188,300.73199462890625,203.2679901123047,300.1666564941406,203.8333282470703 299.8573303222656,204.14266967773438,299.5320129394531,204.46800231933594,299.1946716308594,204.80532836914062 298.8493347167969,205.15066528320312,298.5,205.5,298.1506652832031,205.84933471679688 297.8053283691406,206.19467163085938,297.46783447265625,206.53182983398438,296.8333435058594,207.1666717529297 296.54290771484375,207.45726013183594,296.2690124511719,207.7303924560547,296.01434326171875,207.99465942382812 295.7704162597656,208.247802734375,295.5383605957031,208.4971466064453,295.3213195800781,208.75067138671875 295.105712890625,209.00254821777344,294.8897399902344,209.25900268554688,294.5,209.8333282470703 294.2929992675781,210.1383819580078,294.0970458984375,210.46896362304688,293.8999938964844,210.8143310546875 293.6969299316406,211.17025756835938,293.49835205078125,211.5408172607422,293.29998779296875,211.9213409423828 293.09832763671875,212.30813598632812,292.8993225097656,212.70233154296875,292.5,213.5 292.29998779296875,213.89950561523438,292.1014099121094,214.29672241210938,291.90899658203125,214.6909942626953 291.7201232910156,215.07806396484375,291.53887939453125,215.45706176757812,291.37200927734375,215.8280029296875 291.2116394042969,216.18447875976562,291.0531311035156,216.52305603027344,290.8333435058594,217.1666717529297 290.7350769042969,217.4544219970703,290.6650695800781,217.72817993164062,290.61431884765625,217.9856719970703 290.5667419433594,218.22702026367188,290.5416564941406,218.4583282470703,290.5213317871094,218.6786651611328 L 290.5090026855469,218.89100646972656 290.5026550292969,219.0973358154297"></path></g></svg>