<svg id="svgcontent" width="640" height="480" x="640" y="480" overflow="visible" xmlns="http://www.w3.org/2000/svg" xmlns:se="http://svg-edit.googlecode.com" xmlns:xlink="http://www.w3.org/1999/xlink" viewBox="0 0 640 480"><g ><path fill="none" stroke="#000000" stroke-width="26" d="M303.5,73.5 C 310.3333435058594,73.5,311.4375,73.5,312.64666748046875,73.5 313.9558410644531,73.5,315.3599853515625,73.5,316.8541564941406,73.5 318.4333190917969,73.5,320.0924987792969,73.5,321.82666015625,73.5 325.5,73.5,327.4289855957031,73.5,329.4119873046875,73.5 331.4429931640625,73.5,333.5159912109375,73.5,335.625,73.5 337.7640075683594,73.5,339.927001953125,73.5,342.1080017089844,73.5 346.5,73.5,348.6993408203125,73.5,350.8946533203125,73.5 353.0820007324219,73.5,355.25732421875,73.5,357.4166564941406,73.5 359.5559997558594,73.5,361.67132568359375,73.5,363.7586669921875,73.5 367.8333435058594,73.5,369.8133239746094,73.5,371.7533264160156,73.5 373.6533203125,73.5,375.5133361816406,73.5,377.3333435058594,73.5 379.11334228515625,73.5,380.85333251953125,73.5,382.5533447265625,73.5 385.8333435058594,73.5,387.4136657714844,73.49826049804688,388.95599365234375,73.50267028808594 390.46234130859375,73.50697326660156,391.93475341796875,73.51600646972656,393.375,73.54166412353516 394.7854309082031,73.56678771972656,396.1683044433594,73.60079956054688,397.52398681640625,73.67066955566406 400.16815185546875,73.80694580078125,401.4573059082031,73.93372344970703,402.7239990234375,74.07066345214844 403.96868896484375,74.2052230834961,405.1863708496094,74.36483764648438,406.375,74.54166412353516 407.5357360839844,74.71434020996094,408.6636657714844,74.90149688720703,409.7560119628906,75.10266876220703 411.8360290527344,75.4857406616211,412.8151550292969,75.69497680664062,413.7586669921875,75.90266418457031 414.6724853515625,76.10382080078125,415.5578918457031,76.3141098022461,416.4166564941406,76.54166412353516 417.25921630859375,76.76493072509766,418.0861511230469,77.00154113769531,418.8946533203125,77.27066802978516 420.5086669921875,77.80792999267578,421.3028259277344,78.13691711425781,422.1026611328125,78.47066497802734 422.9115905761719,78.8082046508789,423.72235107421875,79.16975402832031,424.5416564941406,79.54166412353516 425.373046875,79.91905975341797,426.213134765625,80.31160736083984,427.0706787109375,80.70266723632812 428.8309020996094,81.50536346435547,429.7409973144531,81.90278625488281,430.66534423828125,82.29733276367188 431.5950012207031,82.69414520263672,432.5282897949219,83.08123016357422,433.4583435058594,83.45833587646484 434.37628173828125,83.83053588867188,435.2790222167969,84.1890869140625,436.1613464355469,84.52933502197266 437.83087158203125,85.17314147949219,438.6124267578125,85.45919799804688,439.35333251953125,85.72666931152344 440.052490234375,85.97906494140625,440.7123107910156,86.20977020263672,441.3333435058594,86.41666412353516 441.9123840332031,86.60956573486328,442.45147705078125,86.7829818725586,442.9533386230469,86.92666625976562 443.83026123046875,87.177734375,444.2131652832031,87.25955200195312,444.5559997558594,87.33200073242188 444.8619079589844,87.39665222167969,445.13543701171875,87.4458999633789,445.375,87.5 445.5860290527344,87.54765319824219,445.7753601074219,87.58877563476562,445.92401123046875,87.66799926757812 446.1831359863281,87.80609893798828,446.2662353515625,87.93777465820312,446.3280029296875,88.06800079345703 446.39111328125,88.2010498046875,446.4248046875,88.349853515625,446.4375,88.5 446.4501037597656,88.64888763427734,446.44512939453125,88.79694366455078,446.4119873046875,88.93199920654297 446.35302734375,89.17236328125,446.2850341796875,89.26366424560547,446.2133483886719,89.32933044433594 446.1441650390625,89.39269256591797,446.0549621582031,89.43364715576172,445.9583435058594,89.45833587646484 445.8547058105469,89.48481750488281,445.7384338378906,89.49356842041016,445.61334228515625,89.49732971191406 445.3334655761719,89.50575256347656,445.1780090332031,89.49710083007812,445.0119934082031,89.50533294677734 444.8335876464844,89.51417541503906,444.64105224609375,89.53518676757812,444.4375,89.58333587646484 444.21527099609375,89.63590240478516,443.9748229980469,89.71534729003906,443.7279968261719,89.8413314819336 443.1501159667969,90.13630676269531,442.8528137207031,90.38224792480469,442.5213317871094,90.64399719238281 442.15509033203125,90.9332046508789,441.7647705078125,91.2662582397461,441.3333435058594,91.625 440.8634948730469,92.01567077636719,440.3540344238281,92.44012451171875,439.78533935546875,92.8759994506836 438.5133056640625,93.85093688964844,437.77374267578125,94.34740447998047,436.9880065917969,94.87333679199219 436.1598815917969,95.42764282226562,435.28387451171875,95.99315643310547,434.375,96.58333587646484 433.4358825683594,97.19315338134766,432.4684753417969,97.8165512084961,431.49200439453125,98.47333526611328 429.4906311035156,99.81949615478516,428.49468994140625,100.53691101074219,427.4973449707031,101.2760009765625 426.48590087890625,102.02552032470703,425.473388671875,102.80805969238281,424.4583435058594,103.625 423.4225769042969,104.45862579345703,422.3776550292969,105.32841491699219,421.329345703125,106.24400329589844 419.14984130859375,108.14756774902344,418.0493469238281,109.17860412597656,416.9320068359375,110.24933624267578 415.78643798828125,111.34712219238281,414.6370544433594,112.49636840820312,413.5,113.70833587646484 412.3380126953125,114.9468994140625,411.1791076660156,116.23943328857422,410.0679931640625,117.6173324584961 407.7784729003906,120.45661163330078,406.7265930175781,122.01799774169922,405.670654296875,123.61199951171875 404.5975036621094,125.23198699951172,403.561767578125,126.90988159179688,402.5416564941406,128.625 401.510986328125,130.35787963867188,400.50390625,132.12413024902344,399.5026550292969,133.9080047607422 397.48974609375,137.4942626953125,396.4971008300781,139.2988739013672,395.5026550292969,141.10533142089844 394.5057678222656,142.9162139892578,393.5133361816406,144.73841857910156,392.5416564941406,146.5833282470703 391.56390380859375,148.4397735595703,390.5946044921875,150.31906127929688,389.670654296875,152.2413330078125 387.7930908203125,156.1475830078125,386.92718505859375,158.17945861816406,386.07598876953125,160.24400329589844 385.2156066894531,162.33084106445312,384.396728515625,164.45884704589844,383.625,166.625 382.84716796875,168.80828857421875,382.1077880859375,171.0233154296875,381.4440002441406,173.2760009765625 380.1062316894531,177.81594848632812,379.5699157714844,180.1386260986328,379.04132080078125,182.46533203125 378.5125427246094,184.79273986816406,378.0352783203125,187.12762451171875,377.5833435058594,189.4583282470703 377.1340026855469,191.77566528320312,376.7170715332031,194.08016967773438,376.3053283691406,196.361328125 375.4981994628906,200.8330078125,375.0996398925781,203.01380920410156,374.705322265625,205.15866088867188 374.31695556640625,207.27114868164062,373.9345703125,209.3546142578125,373.5833435058594,211.4166717529297 373.2359924316406,213.45599365234375,372.9046630859375,215.4787139892578,372.6413269042969,217.49465942382812 372.1189270019531,221.49404907226562,371.9699401855469,223.49923706054688,371.8413391113281,225.50267028808594 371.7126159667969,227.50804138183594,371.6339111328125,229.52105712890625,371.5833435058594,231.5416717529297 371.53253173828125,233.57177734375,371.51300048828125,235.6143035888672,371.5053405761719,237.67066955566406 371.4898376464844,241.8332977294922,371.5,243.9423370361328,371.5,246.06533813476562 371.5,248.1963348388672,371.5,250.32933044433594,371.5,252.4583282470703 371.5,254.57733154296875,371.5,256.6803283691406,371.5,258.7613220214844 371.5,262.8333435058594,371.5,264.81365966796875,371.5,266.7560119628906 371.5,268.6623229980469,371.5,270.53466796875,371.5,272.375 371.5,274.1853332519531,371.5,275.9676818847656,371.5,277.7239990234375 371.5,281.1666564941406,371.501708984375,282.85699462890625,371.4973449707031,284.5293273925781 371.4930114746094,286.1856689453125,371.4837646484375,287.82806396484375,371.4583435058594,289.4583435058594 371.4330749511719,291.0787658691406,371.3982849121094,292.6914978027344,371.329345703125,294.2973327636719 371.1918029785156,297.5011901855469,371.0641784667969,299.098876953125,370.9320068359375,300.6866760253906 370.8014221191406,302.2555847167969,370.6518859863281,303.7935791015625,370.5,305.2916564941406 370.3531494140625,306.740234375,370.2015075683594,308.1279296875,370.0679931640625,309.4466552734375 369.826416015625,311.8326416015625,369.73773193359375,312.88427734375,369.670654296875,313.843994140625 369.6094970703125,314.718994140625,369.5719909667969,315.5186767578125,369.5416564941406,316.25 L 369.5213317871094,316.92132568359375 369.5090026855469,317.5406799316406 369.5026550292969,318.1159973144531"></path></g></svg>