<svg xmlns="http://www.w3.org/2000/svg" xmlns:svg="http://www.w3.org/2000/svg" width="640" height="480" overflow="visible" x="640" y="480" viewBox="0 0 640 480"><g><path d="M282,106C275.66666,102 274.95963,101.59549 274.22934,101.20267C273.48828,100.80406 272.73093,100.41534 271.95834,100.04166C271.18158,99.66595 270.3959,99.30279 269.59732,98.97067C268.0094,98.31025 267.20169,98.03668 266.39734,97.768C265.59299,97.49933 264.77908,97.24928 263.95834,97C263.12842,96.74793 262.284,96.50012 261.42932,96.232C259.66309,95.67791 258.75641,95.35754 257.82401,95.03467C256.86774,94.70353 255.88814,94.36192 254.875,94.04166C253.83746,93.71369 252.76879,93.3929 251.65601,93.13866C249.3454,92.61076 248.11586,92.46876 246.85867,92.34133C245.573,92.21101 244.25642,92.13371 242.91667,92.08333C241.55768,92.03223 240.18204,92.01299 238.79466,92.00533C236.00003,91.98991 234.5996,91.99337 233.19733,92.01066C231.79088,92.02801 230.37741,92.06586 228.95833,92.16666C227.52648,92.26837 226.07788,92.41181 224.62933,92.68266C221.64774,93.24017 220.14705,93.74229 218.63468,94.288C217.09223,94.84457 215.55811,95.50455 214.04167,96.25C212.50952,97.00317 210.99785,97.82922 209.53867,98.752C206.62135,100.59688 205.27049,101.66653 203.944,102.744C202.62158,103.81817 201.35074,104.94993 200.125,106.125C198.8999,107.29945 197.71413,108.51565 196.57601,109.776C194.29637,112.30045 193.23155,113.63251 192.18134,114.968C191.13751,116.29536 190.14024,117.6388 189.20833,119C188.29237,120.33789 187.42964,121.6739 186.68533,123.032C185.2621,125.62888 184.74072,126.94559 184.29067,128.23199C183.85265,129.48402 183.51802,130.74274 183.29167,132C183.06752,133.24505 182.93179,134.50412 182.92267,135.768C182.90413,138.33443 183.09769,139.64837 183.328,140.97067C183.56314,142.32066 183.90569,143.68464 184.375,145.04167C184.85703,146.43544 185.45284,147.84172 186.232,149.20266C187.87618,152.07452 189.02991,153.42581 190.23467,154.80533C191.49187,156.24489 192.8992,157.66177 194.41667,159.08333C195.99739,160.56413 197.6974,162.04529 199.49867,163.54133C203.30423,166.70204 205.36547,168.29417 207.48534,169.936C209.65933,171.61975 211.90065,173.31314 214.20833,175C216.54859,176.71069 218.93395,178.41336 221.38133,180.06399C226.30087,183.38197 228.83531,184.92785 231.37334,186.464C233.91538,188.00258 236.49083,189.50299 239.08333,191C241.69083,192.50567 244.32819,194.00225 246.97333,195.53599C252.34325,198.64964 255.04678,200.27749 257.76266,201.936C260.49216,203.60281 263.21085,205.29681 265.91666,207C268.60818,208.69418 271.26709,210.38763 273.89066,212.06399C279.00211,215.33001 281.47192,216.91239 283.88535,218.46133C286.24921,219.97843 288.56641,221.4716 290.83334,222.95832C293.06772,224.42369 295.26862,225.8818 297.42133,227.36532C301.68655,230.30467 303.76526,231.83013 305.81866,233.37066C307.85928,234.90161 309.85516,236.45662 311.79166,238.04167C313.70313,239.60624 315.55927,241.18084 317.31467,242.80267C320.71713,245.94622 322.24741,247.58221 323.71466,249.20266C325.15326,250.79148 326.50858,252.40712 327.79166,254.04167C329.06055,255.65812 330.27072,257.29968 331.41867,258.97067C333.70905,262.30462 334.76886,264.03479 335.82132,265.768C336.87155,267.49759 337.87952,269.24218 338.83334,271C339.77808,272.74106 340.67746,274.48077 341.48532,276.23199C343.05777,279.64059 343.69229,281.34875 344.28265,283.02667C344.8606,284.66922 345.36237,286.30093 345.79166,287.91665C346.21268,289.50131 346.57358,291.07116 346.85068,292.62668C347.3905,295.65704 347.53067,297.15478 347.65601,298.62399C347.77905,300.06631 347.84955,301.48495 347.875,302.875C347.8999,304.23449 347.88687,305.56314 347.82401,306.85599C347.70343,309.33542 347.57065,310.51541 347.42401,311.656C347.28156,312.76419 347.103,313.83838 346.875,314.875C346.65192,315.88928 346.39267,316.87793 346.056,317.824C345.39243,319.68875 344.93179,320.56644 344.45599,321.42666C343.98026,322.28683 343.44937,323.11703 342.875,323.91665C342.2999,324.71731 341.68497,325.49185 341.02399,326.22665C339.70056,327.69787 338.96762,328.36892 338.224,329.02398C337.47876,329.68048 336.69739,330.30228 335.875,330.875C335.04648,331.45199 334.1792,331.99466 333.25601,332.45599C331.36554,333.40069 330.31958,333.73388 329.25333,334.05865C328.15936,334.39187 327.0162,334.66937 325.83334,334.91665C324.61615,335.17111 323.35483,335.39123 322.05334,335.59466C319.3363,336.01935 317.91385,336.20596 316.45065,336.39465C314.94519,336.5888 313.39316,336.76932 311.79166,336.91665C310.14242,337.06836 308.44009,337.19717 306.68268,337.25866C303.00149,337.38748 301.07175,337.3309 299.09866,337.25601C297.09225,337.17984 295.06805,337.05002 293.04166,336.875C291.02261,336.70062 289.02728,336.49106 287.07468,336.224C283.32693,335.71142 281.56717,335.37488 279.87466,335.02133C278.22641,334.67703 276.61847,334.28384 275.04166,333.83334C273.46353,333.38244 271.88373,332.87366 270.29867,332.28534C266.97967,331.05343 265.26398,330.28418 263.48266,329.48001C261.63232,328.64468 259.7345,327.73361 257.79165,326.75C255.78485,325.73401 253.73324,324.64996 251.65066,323.48001C247.30981,321.04138 245.1058,319.68405 242.86133,318.28265C240.57155,316.85296 238.26741,315.35608 235.95833,313.79166C233.61918,312.20685 231.27832,310.56885 228.96533,308.85068C224.29645,305.38245 222.03195,303.53085 219.78667,301.66666C217.55525,299.81399 215.38667,297.93484 213.29167,296.04166C211.24019,294.18777 209.27203,292.3483 207.42667,290.50665C203.95628,287.04327 202.44162,285.34491 201.032,283.71734C199.69638,282.17526 198.47897,280.67166 197.375,279.20834C196.3277,277.82016 195.37382,276.47079 194.528,275.14932C192.95643,272.694 192.31383,271.49432 191.71733,270.34134C191.1457,269.23645 190.64041,268.15158 190.20833,267.08334C189.79022,266.04968 189.42641,265.0264 189.14934,264.00534C188.60918,262.01471 188.46692,261.00256 188.34666,260C188.22697,259.00216 188.16667,258.00021 188.16667,257C188.16667,255.9998 188.21722,254.99661 188.34666,254C188.60754,251.99142 188.86816,250.99501 189.14667,250C189.42807,248.99461 189.76948,247.9933 190.16667,247C190.56937,245.9929 191.02338,244.98802 191.54666,244C192.61952,241.97432 193.27591,240.99299 193.94133,239.99733C194.61847,238.98411 195.33987,237.97568 196.08333,236.95833C196.8385,235.92494 197.62073,234.88769 198.40533,233.82933C200.00557,231.67079 200.80086,230.55746 201.60533,229.432C202.4182,228.2948 203.23621,227.14459 204.08333,226C204.93753,224.84584 205.80894,223.68922 206.74133,222.56799C208.62733,220.30003 209.67465,219.23207 210.73866,218.17067C211.80872,217.10324 212.91789,216.0668 214.04167,215.04167C215.16592,214.01609 216.30576,213.01135 217.43466,212.00267C219.67082,210.00464 220.76015,209.003 221.832,208C222.89746,207.00297 223.94934,206 225,205C226.05066,204 227.10069,202.99505 228.168,202C230.324,199.98996 231.44003,198.99702 232.56799,198C233.7027,196.99701 234.85066,196 236,195C237.14934,194 238.29907,193.005 239.43201,192C241.67546,190.00987 242.75975,189.00328 243.82933,188.00267C244.8884,187.0119 245.92787,186.02119 246.95833,185.04167C247.97855,184.07188 248.98587,183.10884 249.99733,182.17067C251.98996,180.32243 252.99707,179.44041 253.99466,178.57066C254.97977,177.71179 255.95918,176.87411 256.91666,176.04167C257.85782,175.22342 258.7818,174.42038 259.65866,173.60266C261.35388,172.02174 262.12076,171.20692 262.85867,170.40533C263.57794,169.62403 264.25677,168.84332 264.91666,168.08332C265.55807,167.34462 266.17197,166.61958 266.79468,165.94133C267.98111,164.64907 268.59244,164.07797 269.19733,163.54133C269.78409,163.02078 270.37564,162.54019 270.95834,162.08332C271.52511,161.63894 272.08792,161.22096 272.62933,160.80532C273.67102,160.00566 274.16147,159.60482 274.62933,159.19732C275.09009,158.79603 275.53299,158.38369 275.95834,157.95832C276.3837,157.53297 276.79846,157.09221 277.19733,156.62933C278.01553,155.67984 278.40378,155.15983 278.79999,154.62933C279.20389,154.08853 279.60232,153.52963 280,152.95832C280.40234,152.38029 280.80115,151.79177 281.20001,151.19732C282.00235,150.00157 282.40091,149.40026 282.79999,148.79733C283.20093,148.19159 283.60226,147.58012 284,146.95832C284.40228,146.32945 284.80542,145.68895 285.20001,145.02932C286.0112,143.6733 286.40332,142.95881 286.79999,142.22933C287.2034,141.4875 287.60202,140.72904 288,139.95832C288.40204,139.17971 288.80099,138.39151 289.20001,137.59733C290.00204,136.00102 290.39966,135.20066 290.79733,134.40533C291.19101,133.61799 291.57867,132.84266 291.95834,132.08333C292.328,131.34399 292.68567,130.62866 293.02933,129.94133C293.66666,128.66667 293.95929,128.08696 294.22665,127.53866C294.47916,127.02087 294.71347,126.52558 294.91666,126.04166C295.11328,125.57338 295.29236,125.1084 295.42667,124.63466C295.6987,123.67518 295.7655,123.15844 295.82935,122.632C295.89438,122.09565 295.93301,121.54958 295.95834,121C295.98367,120.45087 295.99347,119.90535 295.99734,119.36799C296.00479,118.33336 296,117.84333 296,117.37333C296,116.92333 296,116.49333 296,116.08333C296,115.69333 296,115.32333 296,114.97333C296,114.33333 296,114.04266 296,113.76799C296,113.50533 296,113.25066 296,113C296,112.74933 296,112.49466 296,112.232C296,111.66666 296.00156,111.3573 295.99734,111.03199C295.99298,110.69463 295.98364,110.349 295.95834,109.99999C295.93298,109.65026 295.90002,109.30261 295.82935,108.968C295.69391,108.32696 295.56592,108.03835 295.42932,107.76799C295.29431,107.50078 295.13135,107.24835 294.95834,106.99999C294.78204,106.74693 294.58801,106.49684 294.39734,106.23199C293.99362,105.6712 293.79739,105.35891 293.60001,105.03199C293.39731,104.69627 293.20001,104.34933 293,103.99999C292.79999,103.65066 292.60458,103.30258 292.39999,102.96799C292.00867,102.32796 291.80292,102.04108 291.60266,101.77066C291.41147,101.51248 291.22061,101.27256 291.04166,101.04166C290.87131,100.82186 290.70642,100.61427 290.57068,100.40266C290.3183,100.00925 290.23788,99.80207 290.168,99.60266C290.10068,99.41056 290.05203,99.22093 290,99.04166C289.95065,98.87161 289.90851,98.70746 289.832,98.57065C289.69083,98.3182 289.5618,98.23377 289.42932,98.17066C289.29001,98.1043 289.12888,98.06653 288.95834,98.04166C288.77939,98.01556 288.59106,98.00648 288.39734,98.00266C288.00006,97.99483 287.79999,97.99999 287.60001,97.99999C287.39999,97.99999 287.20001,97.99999 287,97.99999C286.79999,97.99999 286.60001,97.99999 286.39999,97.99999C286,97.99999 285.79962,98.00159 285.59732,97.99732C285.39093,97.99297 285.17825,97.98294 284.95834,97.95833C284.72745,97.93248 284.4837,97.89397 284.22934,97.82932C283.66165,97.68504 283.35614,97.56039 283.03201,97.43199C282.69339,97.29785 282.34933,97.14932 282,96.99999L281.65066,96.85066L281.30533,96.70532L280.96799,96.56799" stroke-width="28" stroke="#000000" stroke-linecap="round"></path></g></svg>