<svg id="svgcontent" width="1280" height="960" x="1280" y="960" overflow="visible" xmlns="http://www.w3.org/2000/svg" xmlns:se="http://svg-edit.googlecode.com" xmlns:xlink="http://www.w3.org/1999/xlink" viewBox="0 0 640 480"><g><path fill="none" stroke="#000000" stroke-width="18" d="M299.7,201.8 C  299.7359619140625,201.8075408935547,300.3069152832031,202.6606903076172,300.5646667480469,203.1219940185547 301.37310791015625,204.56895446777344,301.5746765136719,205.11703491210938,301.7838439941406,205.66883850097656 302.2137451171875,206.8029022216797,302.3865051269531,207.40249633789062,302.5311584472656,208.0161590576172 302.97607421875,209.90365600585938,303.01568603515625,210.57061767578125,303.07867431640625,211.23533630371094 303.14227294921875,211.90638732910156,303.18170166015625,212.58572387695312,303.1979064941406,213.2708282470703 303.23065185546875,214.65419006347656,303.213623046875,215.3516082763672,303.1666564941406,216.75 303.1431579589844,217.45016479492188,303.109619140625,218.15049743652344,303.0556640625,218.85000610351562 303.0016174316406,219.55056762695312,302.8311767578125,220.9522705078125,302.6976623535156,221.64999389648438 302.563232421875,222.35252380371094,302.1808166503906,223.7550506591797,301.92474365234375,224.4496612548828 301.6655578613281,225.15274047851562,301.3599548339844,225.84585571289062,301.02398681640625,226.52867126464844 300.6871032714844,227.21334838867188,300.3196716308594,227.88209533691406,299.93426513671875,228.53565979003906 299.55224609375,229.1834716796875,298.35430908203125,231.0101776123047,297.94866943359375,231.57933044433594 297.5498962402344,232.13882446289062,297.1433410644531,232.6811065673828,296.7291564941406,233.2083282470703 296.31793212890625,233.73178100585938,295.47344970703125,234.755126953125,294.5833435058594,235.75 294.13275146484375,236.25364685058594,293.6696472167969,236.7534942626953,293.1883239746094,237.24099731445312 292.22088623046875,238.2208709716797,291.708984375,238.68443298339844,291.1883239746094,239.1356658935547 290.66888427734375,239.58583068847656,289.5918273925781,240.4290313720703,289.0283203125,240.8070068359375 287.90472412109375,241.5606689453125,287.30657958984375,241.88392639160156,286.7083435058594,242.2083282470703 286.1065368652344,242.53465270996094,285.49072265625,242.84591674804688,284.86334228515625,243.1473388671875 283.5881042480469,243.76002502441406,282.2630310058594,244.3523712158203,281.5838317871094,244.64999389648438 280.8937072753906,244.95240783691406,280.18865966796875,245.25279235839844,279.46734619140625,245.5500030517578 278.7323303222656,245.8528594970703,277.9817199707031,246.1597442626953,276.4166564941406,246.75 275.6087341308594,247.05471801757812,274.7798156738281,247.35256958007812,273.93115234375,247.64100646972656 273.0691223144531,247.93399047851562,272.189697265625,248.2156982421875,271.29266357421875,248.47799682617188 270.3859558105469,248.74313354492188,269.4687805175781,249.00958251953125,267.5833435058594,249.4166717529297 266.6316833496094,249.6221466064453,265.666015625,249.78680419921875,264.6928405761719,249.93116760253906 263.71527099609375,250.07618713378906,262.7298889160156,250.19461059570312,261.73931884765625,250.29266357421875 260.7461853027344,250.39097595214844,259.7495422363281,250.47779846191406,257.75,250.5833282470703 256.75054931640625,250.63607788085938,255.75144958496094,250.66848754882812,254.75450134277344,250.683837890625 253.7607421875,250.6991424560547,252.7706298828125,250.6956024169922,251.78599548339844,250.66732788085938 250.80690002441406,250.63922119140625,249.83253479003906,250.60833740234375,247.9166717529297,250.4166717529297 246.9700469970703,250.3219757080078,246.0354461669922,250.18698120117188,245.11166381835938,250.03565979003906 244.19540405273438,249.8855743408203,243.29067993164062,249.7131805419922,242.39666748046875,249.52867126464844 241.5106658935547,249.34580993652344,240.63555908203125,249.15216064453125,238.9166717529297,248.75 238.07127380371094,248.5522003173828,237.23727416992188,248.35162353515625,236.41616821289062,248.14549255371094 235.60659790039062,247.94224548339844,234.81112670898438,247.73410034179688,234.0326690673828,247.51400756835938 233.26744079589844,247.29766845703125,232.51434326171875,247.08697509765625,231.0833282470703,246.5833282470703 230.38894653320312,246.3389434814453,229.7161102294922,246.06951904296875,229.05982971191406,245.78382873535156 228.40805053710938,245.50009155273438,227.76739501953125,245.1942138671875,227.1353302001953,244.86734008789062 226.49830627441406,244.53790283203125,225.85816955566406,244.1932373046875,224.5833282470703,243.4166717529297 223.9236602783203,243.01483154296875,223.2625274658203,242.58253479003906,222.59283447265625,242.1356658935547 221.9118194580078,241.68124389648438,221.2279510498047,241.21006774902344,220.53933715820312,240.72866821289062 219.84426879882812,240.2427520751953,219.14796447753906,239.74830627441406,217.75,238.75 217.04981994628906,238.24998474121094,216.34866333007812,237.7496337890625,215.6544952392578,237.2364959716797 214.95797729492188,236.72161865234375,214.26528930664062,236.1943817138672,213.58599853515625,235.64199829101562 212.90151977539062,235.08538818359375,212.20748901367188,234.5228729248047,210.9166717529297,233.25 210.25694274902344,232.5994415283203,209.62603759765625,231.89794921875,209.00717163085938,231.1649932861328 208.37643432617188,230.41798400878906,207.7624969482422,229.6311798095703,207.16065979003906,228.80999755859375 206.54592895507812,227.97122192382812,205.9309539794922,227.1031494140625,204.75,225.25 204.1397247314453,224.29234313964844,203.54656982421875,223.29888916015625,202.95899963378906,222.2830047607422 202.36514282226562,221.2562255859375,201.78575134277344,220.2115020751953,201.2220001220703,219.1540069580078 200.6584014892578,218.09681701660156,200.10186767578125,217.04043579101562,199.0833282470703,214.9166717529297 198.58425903320312,213.8760528564453,198.11668395996094,212.84011840820312,197.67782592773438,211.81166076660156 197.24612426757812,210.79998779296875,196.84425354003906,209.79534912109375,196.47933959960938,208.79666137695312 196.12071228027344,207.815185546875,195.77108764648438,206.8472137451172,195.25,204.9166717529297 194.9962615966797,203.9766082763672,194.79681396484375,203.04000854492188,194.62600708007812,202.1161651611328 194.4583282470703,201.2091827392578,194.32534790039062,200.31350708007812,194.21800231933594,199.4326629638672 194.1128387451172,198.5697479248047,194.02481079101562,197.7230224609375,193.9166717529297,196.0833282470703 193.8645782470703,195.29342651367188,193.83192443847656,194.5207977294922,193.80941772460938,193.7643280029297 193.78733825683594,193.02210998535156,193.77772521972656,192.2916717529297,193.77867126464844,191.5713348388672 193.77960205078125,190.85897827148438,193.78562927246094,190.15240478515625,193.8333282470703,188.75 193.85714721679688,188.0498504638672,193.890380859375,187.34950256347656,193.9443359375,186.64999389648438 193.99838256835938,185.94943237304688,194.07211303710938,185.2483367919922,194.18133544921875,184.5500030517578 194.29110717773438,183.84815979003906,194.40357971191406,183.13662719726562,194.8333282470703,181.75 195.05262756347656,181.04241943359375,195.3389892578125,180.34376525878906,195.66358947753906,179.64999389648438 195.99420166015625,178.94337463378906,196.37380981445312,178.24307250976562,196.7953338623047,177.5500030517578 197.2255096435547,176.8427276611328,197.68263244628906,176.1287384033203,198.75,174.75 199.30076599121094,174.03857421875,199.90257263183594,173.3419952392578,200.53500366210938,172.64549255371094 201.18247985839844,171.9324188232422,201.86917114257812,171.22329711914062,202.58999633789062,170.51400756835938 203.32907104492188,169.78675842285156,204.0972900390625,169.05047607421875,205.75,167.5833282470703 206.60830688476562,166.82139587402344,207.50350952148438,166.0610809326172,208.4304962158203,165.3018341064453 209.37413024902344,164.52894592285156,210.34796142578125,163.76258850097656,211.35400390625,163.01133728027344 212.3716278076172,162.25143432617188,213.40283203125,161.48594665527344,215.5833282470703,160.0833282470703 216.6824188232422,159.37632751464844,217.81573486328125,158.71212768554688,218.9688262939453,158.07333374023438 220.12646484375,157.43202209472656,221.30722045898438,156.822509765625,222.50733947753906,156.2433319091797 223.7109832763672,155.66244506835938,224.92515563964844,155.09217834472656,227.4166717529297,154.0833282470703 228.66510009765625,153.57781982421875,229.9302215576172,153.11375427246094,231.20266723632812,152.67782592773438 232.4716339111328,152.2430877685547,233.74659729003906,151.84239196777344,235.02467346191406,151.47933959960938 236.29405212402344,151.11875915527344,237.5574951171875,150.76885986328125,240.0833282470703,150.25 241.324462890625,149.9950408935547,242.56173706054688,149.7961883544922,243.788330078125,149.62600708007812 245.00184631347656,149.4576416015625,246.20753479003906,149.32481384277344,247.40333557128906,149.21800231933594 248.58761596679688,149.1122283935547,249.76254272460938,149.0231170654297,252.0833282470703,148.9166717529297 253.22833251953125,148.86415100097656,254.36590576171875,148.83116149902344,255.49732971191406,148.82516479492188 256.6246643066406,148.81918334960938,257.7507019042969,148.8402862548828,258.8753356933594,148.9046630859375 260.0035400390625,148.96925354003906,261.1422424316406,149.0392303466797,263.4166564941406,149.4166717529297 264.5758361816406,149.60903930664062,265.735107421875,149.8779296875,266.8936767578125,150.18316650390625 268.0579833984375,150.4899139404297,269.21234130859375,150.84213256835938,270.3526611328125,151.22866821289062 271.48712158203125,151.61322021484375,272.60784912109375,152.01048278808594,274.75,152.9166717529297 275.7911071777344,153.35708618164062,276.79400634765625,153.82589721679688,277.760498046875,154.31166076660156 278.7046813964844,154.78619384765625,279.6111145019531,155.27984619140625,280.4739990234375,155.79666137695312 281.3147888183594,156.30023193359375,282.1339111328125,156.7977294921875,283.5833435058594,157.9166717529297 284.2783508300781,158.4532012939453,284.9165954589844,159.02560424804688,285.516845703125,159.60716247558594 286.1045837402344,160.17662048339844,286.6531066894531,160.76443481445312,287.17132568359375,161.3606719970703 287.68206787109375,161.9482879638672,288.1705322265625,162.54278564453125,289.0833435058594,163.75 289.53387451171875,164.34584045410156,289.9667053222656,164.9476318359375,290.3883361816406,165.5500030517578 290.8066711425781,166.14767456054688,291.21185302734375,166.74769592285156,291.60333251953125,167.35000610351562 291.9918518066406,167.94773864746094,292.3744201660156,168.54342651367188,293.0833435058594,169.75 293.4339904785156,170.3468017578125,293.76739501953125,170.9485321044922,294.09283447265625,171.5500030517578 294.41668701171875,172.14854431152344,294.7307434082031,172.74917602539062,295.0393371582031,173.35000610351562 295.3470764160156,173.94918823242188,295.64947509765625,174.5496063232422,296.25,175.75 296.55023193359375,176.35012817382812,296.8510437011719,176.95150756835938,297.1455078125,177.5590057373047 297.4417419433594,178.17018127441406,297.7338562011719,178.78956604003906,298.0140075683594,179.4219970703125 298.297607421875,180.06224060058594,298.5861511230469,180.7126922607422,299.0833435058594,182.0833282470703 299.3394775390625,182.78939819335938,299.5705261230469,183.52120971679688,299.788330078125,184.27333068847656 300.0107116699219,185.04124450683594,300.2151794433594,185.8317108154297,300.4033203125,186.64332580566406 300.5953369140625,187.47174072265625,300.78253173828125,188.3199462890625,301.0833435058594,190.0833282470703 301.2382507324219,190.99136352539062,301.3691101074219,191.919921875,301.48834228515625,192.8643341064453 301.6091613769531,193.8212890625,301.7136535644531,194.79116821289062,301.8033447265625,195.77133178710938 301.8936767578125,196.75852966308594,301.9783020019531,197.7518310546875,302.0833435058594,199.75 302.1358947753906,200.7496337890625,302.1682434082031,201.74989318847656,302.1905822753906,202.75 302.2129211425781,203.74990844726562,302.2222595214844,204.75,302.2213439941406,205.75 302.2204284667969,206.75001525878906,302.21429443359375,207.75018310546875,302.1666564941406,209.75 302.142822265625,210.75027465820312,302.10955810546875,211.75167846679688,302.0556640625,212.75450134277344 302.0015869140625,213.7610626220703,301.92767333984375,214.77195739746094,301.81866455078125,215.78599548339844 301.7087707519531,216.80841064453125,301.5953063964844,217.84405517578125,301.1666564941406,219.9166717529297 300.9474792480469,220.97645568847656,300.6616516113281,222.0382843017578,300.34991455078125,223.10716247558594 300.0343933105469,224.1890869140625,299.6827087402344,225.27272033691406,299.3126525878906,226.3606719970703 298.9399108886719,227.45643615722656,298.5470886230469,228.55197143554688,297.75,230.75 297.3510437011719,231.85015869140625,296.9504699707031,232.9483642578125,296.55450439453125,234.04550170898438 296.1598205566406,235.13902282714844,295.76910400390625,236.22854614257812,295.385986328125,237.31399536132812 295.00543212890625,238.39222717285156,294.6268310546875,239.4617919921875,293.9166564941406,241.5833282470703 293.56732177734375,242.62693786621094,293.23358154296875,243.66278076171875,292.90716552734375,244.68833923339844 292.58428955078125,245.70278930664062,292.2704162597656,246.70819091796875,291.9606628417969,247.70333862304688 291.6540832519531,248.68821716308594,291.3551940917969,249.66455078125,290.75,251.5833282470703 290.4517517089844,252.52894592285156,290.1515197753906,253.46426391601562,289.8454895019531,254.38833618164062 289.5421447753906,255.30426025390625,289.2334289550781,256.2098693847656,288.91400146484375,257.10333251953125 288.5970764160156,257.9898681640625,288.28216552734375,258.870361328125,287.5833435058594,260.5833435058594 287.23712158203125,261.43206787109375,286.8688659667969,262.2666015625,286.4928283691406,263.09283447265625 286.11822509765625,263.9159240722656,285.7315673828125,264.7303161621094,285.3393249511719,265.5393371582031 284.9479064941406,266.3466491699219,284.5495300292969,267.14910888671875,283.75,268.75 283.3502502441406,269.5503845214844,282.94927978515625,270.35162353515625,282.5455017089844,271.1545104980469 282.13995361328125,271.9609680175781,281.7303161621094,272.77142333984375,281.3139953613281,273.58599853515625 280.89398193359375,274.40777587890625,280.47003173828125,275.2381591796875,279.5833435058594,276.9166564941406 279.13092041015625,277.77313232421875,278.66485595703125,278.63824462890625,278.183837890625,279.51165771484375 277.695556640625,280.3982849121094,277.1912841796875,281.2938537597656,276.6673278808594,282.1966552734375 276.135009765625,283.1138916015625,275.5919494628906,284.0453186035156,274.4166564941406,285.9166564941406 273.8139343261719,286.8763427734375,273.18084716796875,287.83990478515625,272.5311584472656,288.816162109375 271.8702392578125,289.80926513671875,271.18853759765625,290.8132019042969,270.49267578125,291.8326721191406 269.784912109375,292.86956787109375,269.0592041015625,293.9200744628906,267.5833435058594,296.0833435058594 266.8270568847656,297.1918640136719,266.06451416015625,298.3192443847656,265.2928466796875,299.4598388671875 264.51385498046875,300.6112365722656,263.73004150390625,301.7714538574219,262.9393310546875,302.9353332519531 262.14642333984375,304.1024475097656,261.3550720214844,305.27178955078125,259.75,307.5833435058594 258.9535217285156,308.73040771484375,258.15374755859375,309.8627624511719,257.3590087890625,310.98382568359375 256.5723876953125,312.09344482421875,255.79147338867188,313.1873474121094,255.02200317382812,314.267333984375 254.26412963867188,315.3310241699219,253.51516723632812,316.3741149902344,252.0833282470703,318.4166564941406 251.3905029296875,319.40496826171875,250.72015380859375,320.376708984375,250.06883239746094,321.3311767578125 249.43084716796875,322.2660827636719,248.81088256835938,323.1864318847656,248.20733642578125,324.0926818847656 247.61456298828125,324.9827575683594,247.03424072265625,325.85955810546875,245.9166717529297,327.5833435058594 245.3698272705078,328.42681884765625,244.83676147460938,329.2607421875,244.31166076660156,330.079345703125 243.7967529296875,330.8820495605469,243.29319763183594,331.66766357421875,242.79666137695312,332.43133544921875 242.3131561279297,333.17498779296875,241.84698486328125,333.89971923828125,240.9166717529297,335.25 240.4768524169922,335.88836669921875,240.04135131835938,336.491455078125,239.62066650390625,337.06500244140625 239.21990966796875,337.61138916015625,238.83351135253906,338.1251525878906,238.4686737060547,338.6099853515625 238.1261749267578,339.06512451171875,237.79954528808594,339.4843444824219,237.25,340.25 237.01092529296875,340.5830993652344,236.8031005859375,340.8929748535156,236.61700439453125,341.1784973144531 236.4458770751953,341.4410400390625,236.29226684570312,341.6878662109375,236.14599609375,341.9179992675781 236.00689697265625,342.1368713378906,235.87734985351562,342.3522644042969,235.5833282470703,342.75 235.4330291748047,342.95330810546875,235.2671661376953,343.1509704589844,235.0973358154297,343.3500061035156 234.9258270263672,343.5509948730469,234.7494354248047,343.74951171875,234.57533264160156,343.95001220703125 234.402099609375,344.1495056152344,234.2254638671875,344.3433837890625,233.9166717529297,344.75 233.7671356201172,344.9468994140625,233.63259887695312,345.1490783691406,233.50267028808594,345.3500061035156 233.37393188476562,345.5491027832031,233.25071716308594,345.7504577636719,233.12466430664062,345.95001220703125 232.998046875,346.15045166015625,232.87454223632812,346.3561706542969,232.5833282470703,346.75 232.43299865722656,346.95330810546875,232.2671661376953,347.1509704589844,232.0973358154297,347.3500061035156 231.9258270263672,347.5509948730469,231.7494354248047,347.74951171875,231.57533264160156,347.95001220703125 231.402099609375,348.1495056152344,231.2254638671875,348.3433837890625,230.9166717529297,348.75 230.7671356201172,348.9468994140625,230.63259887695312,349.1490783691406,230.50267028808594,349.3500061035156 230.37393188476562,349.5491027832031,230.25071716308594,349.7504577636719,230.12466430664062,349.95001220703125 229.998046875,350.15045166015625,229.87454223632812,350.3561706542969,229.5833282470703,350.75 229.43299865722656,350.95330810546875,229.2671661376953,351.1509704589844,229.0973358154297,351.3500061035156 228.9258270263672,351.5509948730469,228.7494354248047,351.74951171875,228.57533264160156,351.95001220703125 228.402099609375,352.1495056152344,228.22544860839844,352.3433837890625,227.9166717529297,352.75 227.76730346679688,352.94671630859375,227.6334991455078,353.1474914550781,227.50717163085938,353.3454895019531 227.3842010498047,353.5382080078125,227.27066040039062,353.72906494140625,227.16065979003906,353.91400146484375 227.05435180664062,354.0927429199219,226.95751953125,354.2686767578125,226.75,354.5833435058594 226.65301513671875,354.73040771484375,226.55209350585938,354.865234375,226.45449829101562,354.9928283691406 226.36138916015625,355.11456298828125,226.26986694335938,355.2284240722656,226.18600463867188,355.3393249511719 226.1062469482422,355.4447937011719,226.02447509765625,355.54266357421875,225.9166717529297,355.75 225.86610412597656,355.8472595214844,225.83258056640625,355.9482116699219,225.80267333984375,356.0455017089844 225.77395629882812,356.1389465332031,225.75,356.2291564941406,225.72467041015625,356.3139953613281 L 225.69732666015625,356.392822265625 225.66600036621094,356.46466064453125"></path></g></svg>