<?xml version="1.0" encoding="UTF-8"?>
<svg x="687.5" y="300" overflow="visible" viewBox="0 0 500 300" xmlns="http://www.w3.org/2000/svg">
<path d="m21 51.5h23.643 2.28 3 2.4 2.72 2.25 2.43 3.519 2.787 2.751 3.3337 2.142 1.926 3.026 2.608 3.184 2.961 3.447 5.2587 4.38 4.74 6.88 5.553 5.751c1.933 0 3.864-3.3569e-4 7.696 0 1.8903 1.6785e-4 3.7627-3.8147e-4 5.619 0.0089989 1.8424 0.0093079 3.6728 0.026577 5.493 0.063 1.8125 0.03627 3.62 0.070629 7.2213 0.26133 1.8001 0.095325 3.595 0.23021 5.382 0.372 1.7757 0.1409 3.5346 0.29564 5.274 0.444 1.7153 0.1463 3.4011 0.30595 6.6773 0.51733 1.5793 0.10189 3.1199 0.16858 4.62 0.228 1.4599 0.057827 2.8801 0.10252 4.26 0.156 1.3401 0.051937 2.6424 0.085011 5.12 0.28267 1.1817 0.094269 2.3239 0.22802 3.429 0.381 1.0736 0.14863 2.1138 0.32088 3.123 0.507 0.98351 0.18139 1.9403 0.37368 3.7813 0.77867 0.89082 0.19596 1.7598 0.39804 2.61 0.591 0.82985 0.18835 1.6392 0.37112 2.43 0.537 0.76924 0.16136 1.5163 0.3252 2.96 0.53867 0.68808 0.10174 1.3568 0.16874 2.001 0.219 0.61725 0.048161 1.2072 0.07629 1.767 0.093002 0.52757 0.015751 1.0213 0.019997 1.8987 0.021332 0.38068 5.7983e-4 0.72534 0 1.038 0h0.786 0.84267 0.60899 0.66301 1.0613 0.99001 1.17 1.84 1.581 1.707 2.3787 1.8 1.8 2.4 1.8 1.8c0.59999 0 1.2-3.3188e-4 2.4 0 0.60033 1.6785e-4 1.2027-2.7084e-4 1.809 0.0089989 0.61238 0.0093651 1.233 0.027081 1.863 0.063 0.64268 0.03664 1.3016 0.075493 2.6613 0.26133 0.71143 0.097237 1.4378 0.23211 2.181 0.372 0.75818 0.14272 1.5268 0.29731 2.307 0.444 0.78716 0.148 1.5776 0.30947 3.1787 0.51733 0.79904 0.10374 1.6049 0.16995 2.418 0.219 0.82425 0.049721 1.6653 0.076836 2.526 0.093002 0.88461 0.016617 1.7973 0.019997 3.7227 0.021332 1.0193 7.0572e-4 2.0747 0 3.162 0h3.414 4.7573 3.6 3.6 4.8 3.6 3.6 4.8 3.6 3.6 4.8 3.573 3.411 4.016 2.475 2.205 2.9867 2.553 2.751 3.696 2.619 2.493 3.2213 2.4 2.4 3.2 2.391 2.337 2.9387 2.01 1.83c0.57001 0 1.12 3.5095e-4 2.16 0 0.49066-1.6785e-4 0.96539 4.425e-4 1.428-0.0089989 0.45474-0.0092773 0.90576-0.026894 1.356-0.063 0.4552-0.036503 0.9212-0.077286 1.8827-0.26133 0.51193-0.097996 1.0378-0.23262 1.581-0.372 0.5582-0.14323 1.1266-0.29748 1.707-0.444 0.58698-0.14818 1.1765-0.30913 2.3787-0.51733 0.59787-0.10354 1.1994-0.16962 1.8-0.219 0.59949-0.049286 1.1999-0.076664 1.8-0.093002 0.59991-0.016331 1.2-0.019997 2.4-0.021332 0.60001-6.6757e-4 1.2 0 1.8 0h1.8c0.60001 0 1.2 3.3188e-4 2.4 0 0.59967-1.6785e-4 1.1974 3.9673e-4 1.791-0.0089989 0.58774-0.0093002 1.1677-0.026237 1.737-0.063 0.55807-0.036037 1.1071-0.065575 2.1386-0.26133 0.49326-0.093605 0.9621-0.228 1.41-0.372 0.4321-0.13893 0.84064-0.29299 1.23-0.444 0.37061-0.14374 0.71432-0.29879 1.36-0.51733 0.28833-0.097591 0.56409-0.16879 0.828-0.219 0.2536-0.048248 0.50504-0.076748 0.75601-0.093002 0.25443-0.016476 0.51733-0.019997 1.0827-0.021332 0.31-7.3242e-4 0.63998 0 0.98999 0h1.17 1.84 1.572 1.644c0.54532 0 1.0826 3.5095e-4 2.1173 0 0.49002-1.6785e-4 0.96008 6.1798e-4 1.41-0.0089989 0.43008-0.0091934 0.84061-0.025593 1.23-0.063 0.3707-0.03561 0.73001-0.063461 1.36-0.26133 0.2963-0.09306 0.5679-0.22986 0.828-0.372 0.25729-0.14062 0.50397-0.29702 0.75601-0.444 0.2533-0.14771 0.50534-0.31399 1.0827-0.51733 0.30426-0.10716 0.63617-0.17035 0.98099-0.219 0.35663-0.050308 0.72711-0.07679 1.107-0.093002 0.38751-0.016541 0.78134-0.019669 1.5787-0.021332 0.39999-8.3542e-4 0.80005 3.3188e-4 1.2-0.0089989 0.40009-0.0093346 0.80081-0.023273 1.2-0.063 0.80212-0.07983 2.006-0.35247 2.791-0.63334 0.77393-0.27688 1.4771-0.63941 2.4756-0.96133 0.80688-0.26013 1.7249-0.29934 2.736-0.336 0.63974-0.023197 1.3831-0.12508 2.5653-0.56533 0.69241-0.25786 1.3716-0.60614 2.064-0.864 1.1822-0.44026 1.9257-0.54716 2.968-0.568 0.79984-0.015991 1.6 0 2.6 0h2.6 2.8 2.5865c0.9375 0 0.033112-0.24182-0.72516 0.071999-0.91125 0.37713-0.9256 1.5573-1.7333 1.856-0.68839 0.25455-1.728 0.071999-2.528 0.071999-1 0-1.8004-0.025642-2.8 3.3188e-4 -0.80078 0.020809-1.8153 0.30933-2.4 0.705-0.82291 0.5569-1.5856 1.1287-2.4417 1.253-0.72247 0.10489-1.9263 0.041668-2.609 0.041668h-2.844c-0.75601 0-1.8387-0.0073395-2.4733 0.0026665-0.68286 0.010769-1.7542 0.013485-2.6987 0.33067-0.85272 0.28636-1.4531 0.92421-2.3333 1.3333-0.78159 0.36327-1.5143 0.32883-2.6427 0.33333-0.66266 0.0026436-1.7067-7.5531e-4 -2.3893 0-1.2027 0.0013351-2.0131 0.018288-2.5876 0.11433-1.055 0.17636-1.921 0.45601-2.9243 0.73633-0.539 0.15059-1.0927 0.32462-2.2613 0.58133-1.1891 0.26121-1.7925 0.34684-2.9947 0.45367-0.59915 0.053242-1.1998 0.082664-2.4 0.10534-0.59991 0.01133-1.8 0.0040512-3.0027 0.011665-0.60635 0.0038376-1.2194 0.0028343-2.4693 0.069332-0.64282 0.034199-1.3017 0.075226-2.6613 0.26133-0.71176 0.097427-1.4409 0.23257-2.19 0.381-0.77097 0.15277-1.5604 0.32568-2.37 0.507-0.83038 0.18597-1.6788 0.38652-3.44 0.77867-0.90875 0.20234-1.8339 0.40097-2.772 0.591-0.94458 0.19134-1.8937 0.37283-2.844 0.537-0.9444 0.16314-1.8796 0.32631-3.7173 0.53867-0.88937 0.10277-1.7651 0.16906-2.628 0.228-0.8544 0.058357-1.7054 0.10347-2.556 0.156-0.85477 0.052792-1.7197 0.09383-3.4827 0.28267-0.91071 0.097546-1.8356 0.23116-2.772 0.381-0.94632 0.15143-1.8955 0.32309-2.844 0.507-0.94614 0.18344-1.8841 0.37461-3.7173 0.77867-0.89108 0.1964-1.7624 0.39871-2.619 0.591-0.84201 0.18901-1.6716 0.37236-2.493 0.53699-0.81137 0.16264-1.6149 0.32874-3.2213 0.53867-0.79831 0.10432-1.5997 0.16932-2.4 0.228-0.79974 0.058647-1.6001 0.10334-2.4 0.156-0.80014 0.052673-1.6029 0.091072-3.2 0.28267-0.80167 0.096176-1.6007 0.23078-2.4 0.37199-0.80072 0.14146-1.5996 0.2966-2.4 0.444-0.79965 0.14727-1.5964 0.30888-3.2 0.51733-0.79807 0.10374-1.597 0.16911-2.391 0.228-0.78741 0.058411-1.5675 0.10291-2.337 0.156-0.75784 0.052284-1.5052 0.086517-2.9387 0.28267-0.69287 0.09481-1.367 0.22977-2.028 0.381-0.65643 0.15018-1.3062 0.32417-1.956 0.507-0.65558 0.18447-1.3157 0.38705-2.6827 0.77866-0.70847 0.20296-1.4344 0.401-2.172 0.6-0.74506 0.20101-1.4948 0.3995-2.244 0.6-0.74545 0.1995-1.4846 0.39318-2.9173 0.8-0.69162 0.19638-1.3649 0.39905-2.028 0.591-0.65417 0.18935-1.3038 0.37344-1.956 0.53699-0.65317 0.1638-1.3123 0.33209-2.6827 0.53867-0.70709 0.10659-1.4343 0.16961-2.172 0.228-0.745 0.058975-1.4948 0.1032-2.244 0.156-0.74548 0.052544-1.4865 0.087006-2.9173 0.28267-0.6925 0.094696-1.3638 0.22933-2.019 0.37199-0.64349 0.14011-1.2724 0.29566-1.893 0.444-0.61209 0.14632-2.4201 0.52607-3.021 0.60767-0.59653 0.081009-1.7787 0.17776-2.3587 0.20133-1.1269 0.045799-1.671 0.036736-3.199 0.042-0.47467 0.0016327-1.3936-0.0019684-2.2933 0.071663-0.91959 0.075249-1.8857 0.24842-2.92 0.496-0.54535 0.13054-1.0996 0.28944-2.2507 0.58133-0.58682 0.1488-1.173 0.33244-2.9787 0.608-0.59772 0.091217-1.1998 0.13932-2.4 0.24267-0.59991 0.051659-1.2068 0.056694-3 0.33334-0.60309 0.09304-1.2039 0.22961-2.4213 0.51733-0.62094 0.14675-1.2495 0.30389-1.893 0.444-0.65521 0.14266-2.728 0.46928-3.4563 0.53733-0.74307 0.069427-1.5013 0.11765-2.271 0.168-0.77963 0.050995-1.5682 0.095673-2.361 0.168-1.5992 0.14588-2.3986 0.26723-3.1973 0.40266-0.80136 0.13588-1.601 0.29656-2.4 0.471-0.80106 0.17489-1.6006 0.36498-2.4 0.561-1.6012 0.39262-2.3996 0.59888-3.2 0.79466-0.79953 0.19555-1.5989 0.38612-2.4 0.561-0.79898 0.17444-1.5979 0.33952-2.4 0.471-1.5962 0.26165-2.3995 0.33395-3.2 0.40266-0.7995 0.068619-1.6 0.11733-2.4 0.168s-1.6008 0.095421-2.4 0.168c-1.6019 0.14549-2.4013 0.26723-3.2 0.40266-0.80135 0.13588-1.601 0.29656-2.4 0.471-0.80106 0.17489-1.6006 0.36498-2.4 0.561-1.6012 0.39262-2.4 0.59733-3.2 0.79733-0.79999 0.2-1.6 0.4-2.4 0.6s-1.6 0.4-2.4 0.6c-1.6 0.4-2.4 0.6-3.2 0.8-0.79999 0.2-1.6 0.4-2.4 0.6s-1.6 0.4-2.4 0.6c-1.6 0.4-2.3993 0.60109-3.1973 0.79733-0.79332 0.19508-1.5805 0.38505-2.361 0.561-0.76884 0.17332-1.5255 0.33746-2.271 0.471-1.434 0.25685-2.1274 0.33337-2.8027 0.40266-0.66216 0.067947-1.3173 0.11733-1.968 0.168s-1.3062 0.096649-1.968 0.168c-1.3674 0.14742-2.0762 0.26481-2.7973 0.40266-1.4681 0.28065-2.1945 0.46526-2.912 0.65067-0.70448 0.18204-1.3915 0.35809-2.656 0.77866-1.1324 0.37665-1.6374 0.59246-2.5833 0.95834-0.4404 0.17034-1.2635 0.53008-2.4837 0.799-0.80103 0.17654-1.6422 0.23553-2.514 0.348-0.45683 0.058937-1.9298 0.33258-2.4563 0.46267-1.1038 0.27273-1.6681 0.44366-2.8383 0.72667-0.59227 0.14324-1.7895 0.38281-2.391 0.46266-1.1973 0.15893-1.8001 0.19101-2.4 0.24267-1.2002 0.10335-1.8053 0.13307-3 0.33334-1.2064 0.20223-1.8021 0.37312-2.4 0.53867-1.2045 0.33352-1.8007 0.53474-2.4 0.73067-1.2015 0.39281-2.4024 0.79821-3.009 0.99733-0.61205 0.2009-1.2309 0.40557-2.5053 0.8-0.65546 0.20287-2.0182 0.60271-2.728 0.79967-0.72224 0.20042-1.4532 0.39463-2.187 0.57899-0.72818 0.18295-1.4459 0.35918-2.151 0.507-1.9475 0.40826-2.5325 0.48058-3.591 0.609-0.48419 0.058746-1.3918 0.12049-2.2233 0.27333-1.2159 0.22348-2.011 0.53286-2.8053 0.87366-0.40297 0.17289-1.198 0.56503-2.4 1.158-0.79869 0.39401-1.5966 0.76688-2 0.92833-0.79367 0.31764-1.9958 0.65549-2.791 0.75767-0.76448 0.098236-1.8385 0.094788-2.7663 0.11467-1.0432 0.022354-1.821 0.13921-2.6857 0.44233-0.6803 0.23848-1.3896 0.582-2.166 0.85201-1.1785 0.40986-1.9899 0.54519-2.791 0.65466-0.79895 0.10918-1.6155 0.15802-2.8 0.49367-0.81275 0.23032-1.6038 0.59049-2.4 0.966-0.40195 0.18957-1.5972 0.79574-2.391 1.182-0.76497 0.37223-1.4766 0.74504-2.4757 1.0757-0.81534 0.26981-1.5997 0.32967-2.6667 0.66667-0.64851 0.20483-1.3418 0.53201-2.088 0.888-0.7847 0.37436-1.9755 0.98486-2.7787 1.3697-0.39846 0.19091-1.1868 0.57468-2 0.83833-1.1834 0.38367-2 0.46533-2.8 0.57066s-2.01 0.30212-2.7973 0.57066c-0.79259 0.27033-1.5452 0.62502-2.232 1.032-0.94943 0.56264-1.4615 1.0021-2.2213 1.5973-0.51479 0.40327-1.3855 1.0117-2.0637 1.4-0.72031 0.4125-1.493 0.80339-2.6857 1.4-0.79887 0.3996-1.597 0.78545-2 0.95834-0.79436 0.3408-1.9957 0.73048-2.7973 0.87366-0.77779 0.13893-1.5634 0.093384-2.8693 0.50134-0.58524 0.18282-1.3245 0.72058-2.1013 1.2693-0.86509 0.61112-1.5373 0.99734-2.232 1.3973s-1.6749 0.98854-2.2293 1.3973c-0.74036 0.54591-1.3116 1.1849-2.3707 1.4883-0.7757 0.22223-1.8499-0.094406-2.528 0.18634-0.9188 0.38039-0.96205 1.4877-1.744 1.8773-0.68264 0.34013-1.7435 0.74725-2.328 1.272-0.41125 0.36917-1.1634 1.2179-1.8 1.737-0.94975 0.77441-1.6216 0.8669-2.4 1.147-1.0368 0.37306-1.5622 0.95265-2.2 1.3267-0.94341 0.55328-1.9042 0.685-2.3493 1.4187-0.46784 0.77101-1.092 1.1157-2.0507 1.1493-0.79979 0.028046-1.6771 0.049118-2.591 0.71434-0.59708 0.43463-1.0525 1.2945-1.3583 2.0643-0.35722 0.89911-1.2604 0.99707-1.8827 1.7893-0.47955 0.61057-0.87744 1.3681-1.7707 1.4293-0.98609 0.067581-1.8593-0.0067902-2.3467 0.87466-0.36904 0.66745-0.69739 1.4718-1.164 2.256-0.45027 0.75674 0.59867 0.87199 1.324 0.87199 0.98933 0 1.7894 0.013336 2.7893 0 0.80021-0.010666 1.6286-0.11749 2.4027-0.56799 0.66665-0.38797 1.3371-0.97346 2.568-1.2613 0.68963-0.16129 1.4505-0.15768 2.232-0.168 1.1976-0.015808 2.0072 0.0065765 2.839-0.044342 0.87405-0.053513 1.3363-0.091919 2.8013-0.401 0.53066-0.11195 1.6287-0.40919 2.1987-0.55733 0.57935-0.15056 1.7562-0.45808 2.9583-0.66667 0.59756-0.10368 1.7908-0.22964 2.3787-0.28267 0.57952-0.052277 1.7093-0.13887 2.2507-0.21866 1.5359-0.22633 2.4661-0.53493 2.92-0.68266 0.90291-0.29388 1.8098-0.62137 2.784-0.81601 1.0271-0.2052 1.5711-0.23502 2.6667-0.29166 0.54897-0.028381 1.632-0.040329 2.6667-0.041672 0.968-0.0012512 1.904 0 2.375 0 0.978 0 1.497 0.0029297 3.2447-3.3569e-4 0.65767-0.001236 1.3514-0.0050964 2.079-0.020996 0.75976-0.016602 1.5497-0.044556 2.367-0.093002 0.84406-0.050018 2.6018-0.21234 3.5107-0.32834 0.92857-0.11852 1.8715-0.26161 2.829-0.40799 0.96983-0.14827 1.9487-0.30299 2.937-0.444 0.99306-0.14169 2.9902-0.38095 3.991-0.46234 0.99931-0.081268 1.9998-0.13466 3-0.17099 0.9998-0.036316 2-0.053665 3-0.063004 0.99998-0.0093231 3-0.0090027 3.9997-0.0090027h2.979 2.907 3.6717 2.592 2.556 3.5373 2.808 2.844 3.6623 2.571 2.463 3.209 2.4 2.4 3.2 2.4 2.4 3.1997 2.379 2.307 2.8713 1.971 1.863 2.409 1.8 1.8 2.3997 1.779 1.707 2.0717 1.392 2.784 2.6667 2.6667 2.3333 2.843 2.1987 3.5583 2.4 3 1.809 2.5053 3.4537 2.232 2.232 3.4537 2.5053 2.4093 2.4413c1.2727 0 1.929-3.2043e-4 3.2917 0 0.70934 1.6785e-4 1.4347-2.594e-4 2.172 0.0090027 0.74538 0.0093689 1.4951 0.022934 2.244 0.063004 1.4838 0.079391 2.9189 0.25214 3.608 0.37067 0.6763 0.11632 1.3379 0.26031 1.992 0.40799 1.3024 0.29401 1.9537 0.45534 2.6187 0.58134 1.3611 0.25795 2.0739 0.33339 2.8 0.39732 0.73663 0.064865 1.4824 0.10564 2.232 0.129 1.4943 0.04657 2.232 0.039993 3.6667 0.041672 0.69067 8.0872e-4 1.3654-0.0024567 2.028 0.0090027 1.3055 0.022568 1.9565 0.056381 2.6107 0.10533 0.66321 0.049622 2.029 0.21257 2.7373 0.32834 0.72644 0.11874 2.208 0.40799 2.9573 0.55733s1.4932 0.3028 2.232 0.43201c1.432 0.25046 2.1245 0.33051 2.7973 0.39999 0.65585 0.067719 1.9292 0.16565 2.5493 0.21866 0.61255 0.052353 2.4228 0.27498 3.0213 0.39201 0.60156 0.11761 1.8 0.40799 2.4 0.55733s1.1906 0.34373 3 0.66667c0.59732 0.10661 1.1986 0.18158 2.4 0.26132 0.59946 0.03978 1.1999 0.05867 2.4 0.069336 1.2 0.010666 1.8 0.0026703 3 0.0026703h2.4c0.59998 0 1.8-0.0050049 3 0.0026703 0.60001 0.00383 1.2008 0.0017242 2.4 0.069336 0.60056 0.033859 1.2083 0.048447 3 0.37067 0.60327 0.10849 1.2004 0.26077 2.4 0.55733 0.60025 0.14839 1.1906 0.34373 3 0.66667 0.59732 0.10661 1.1992 0.17261 1.8 0.21899 1.1986 0.092545 1.7999 0.097672 2.4 0.10533 1.7999 0.022995 2.3997 0.0090027 2.9973 0.0090027h2.8883 2.5463 2.736 2.5373 2.7267 2.896c0.85065 0 1.6693-0.0062714 2.8723 3.3569e-4 0.80872 0.0044403 1.642 0.032959 2.0717 0.071671 0.90042 0.081131 2.3722 0.36591 2.8987 0.49599 1.1038 0.27271 1.6697 0.43701 2.2507 0.58134 1.1789 0.29286 2.3769 0.52992 2.9783 0.60767 1.1884 0.15361 1.7787 0.17775 2.3587 0.20132 1.1269 0.045807 1.671 0.040329 3.1987 0.041672 0.92865 8.0872e-4 1.371 0 2.2216 0h2.8214 2.8 2.472 2.8987 2.2507 2.9787 2.4 3 2.3787 3.288 2.25 2.8327 2.556 2.652 2.6857 2.5597 2.7973 2.7973 2.232 3.171 2.4427 2.5597 2.7973 2.8 2.4 2.8c0.79999 0 2.0001 0.0081787 2.7973-0.0026703 0.78149-0.010635 1.5424-0.0067139 2.232-0.168 1.2309-0.28787 1.8947-0.88501 2.568-1.2613 0.96066-0.53696 1.8026-0.56349 2.8027-0.56799 0.80002-0.0036011 1.7995 0 2.5375 0 0.29184 0-0.59467-0.0010071-1.342 0-0.99283 0.0013428-2.025-0.0044556-2.4901 0.70534-0.42554 0.64938-1.1463 1.2738-2.1053 1.2947-0.7998 0.01738-1.6 0-2.6 0h-2.4417-2.6517c-0.80002 0-1.68-0.001236-2.64 0-1.0347 0.0013428-1.5725-0.0048523-2.6667 0.041672-0.54968 0.023376-1.6396 0.086121-2.6667 0.29166-0.97159 0.19444-1.8615 0.51683-2.712 0.81601-0.41241 0.14508-1.6156 0.5486-2.4213 0.67999-0.79556 0.12973-1.5999 0.15778-2.4 0.168-1.2002 0.015335-2.009 0.0026703-2.8416 0.0026703-0.87268 0-2.2917-0.0018921-2.8013 3.3569e-4 -1.0714 0.0046844-1.6293 0.013458-2.1987 0.041336-1.1682 0.057205-1.7662 0.094299-2.9583 0.29166-1.2063 0.19972-1.8004 0.37012-2.4 0.51733-1.201 0.29489-1.797 0.4579-2.4 0.58134-1.792 0.36685-2.3995 0.40495-3 0.46266-1.1991 0.11523-1.8011 0.14546-2.4 0.21066-1.8037 0.19635-2.4012 0.3316-3 0.46266-0.60126 0.13159-1.7995 0.4339-2.4 0.58134-0.59955 0.14722-2.3989 0.52519-3 0.608-0.59897 0.082504-1.8 0.192-2.4 0.24266s-1.8039 0.14203-3 0.33333c-0.60223 0.096313-1.8004 0.37012-2.4 0.51733-0.60046 0.14745-1.1948 0.32166-2.4 0.58134-1.1953 0.25755-1.7988 0.3399-3.009 0.46266-0.61163 0.062042-1.2329 0.1022-1.863 0.15599-1.2993 0.1109-2.6625 0.27528-3.3707 0.39233-0.72662 0.1201-1.4638 0.26605-2.208 0.429-0.75052 0.16434-1.4996 0.34554-2.244 0.537-0.73831 0.18991-2.1741 0.584-3.5347 0.991-0.65735 0.19664-1.2991 0.39854-1.929 0.60001-0.62079 0.19856-1.839 0.59991-3.0417 1-0.60004 0.19962-1.1969 0.40741-2.4 0.77867-0.59848 0.18468-1.1927 0.37988-2.4 0.65067-1.1936 0.26772-1.7982 0.34113-2.991 0.46533-0.58704 0.061142-1.1685 0.09317-2.2947 0.21066-0.54431 0.056793-2.0753 0.32579-2.549 0.46533-0.94324 0.27786-1.8876 0.65164-2.385 0.83833-0.51865 0.19469-2.2651 0.79527-2.9217 0.991-0.686 0.20448-1.402 0.40247-2.142 0.60001-0.75867 0.20251-1.5344 0.40118-2.322 0.60001-1.5941 0.4024-2.3949 0.60045-3.1973 0.79999-0.80621 0.20047-1.6184 0.40115-2.439 0.60001-0.83008 0.20116-1.672 0.40269-2.529 0.60001-1.7614 0.40555-2.672 0.60161-3.6 0.79999-0.94333 0.20166-1.9011 0.40099-2.871 0.60001-0.97946 0.20099-1.9673 0.40048-2.961 0.60001-1.9972 0.40099-2.9971 0.59959-3.9947 0.79999-0.99374 0.19962-1.9815 0.39902-2.961 0.60001-0.96988 0.19902-1.9279 0.3974-2.871 0.60001-1.8384 0.39494-2.7281 0.59822-3.6 0.79999-0.85675 0.19827-1.6989 0.39885-2.529 0.60001-0.82059 0.19885-1.6328 0.39941-2.439 0.60001-1.6029 0.39883-2.4029 0.60045-3.2053 0.79999-0.80621 0.20047-1.6184 0.40115-2.439 0.60001-0.83008 0.20116-1.672 0.40269-2.529 0.60001-1.7614 0.40555-2.672 0.60161-3.6 0.79999-0.94333 0.20166-1.9011 0.40099-2.871 0.60001-0.97946 0.20099-1.9673 0.40048-2.961 0.60001-1.9972 0.40099-2.9971 0.59959-3.9947 0.79999-0.99374 0.19962-1.9815 0.39902-2.961 0.60001-0.96988 0.19902-1.9279 0.3974-2.871 0.60001-1.8384 0.39494-2.7281 0.59822-3.6 0.79999-0.85675 0.19827-1.6989 0.39885-2.529 0.60001-0.82059 0.19885-1.6328 0.39941-2.439 0.60001-1.6029 0.39883-2.4026 0.59998-3.2027 0.79999-0.79999 0.2-1.6 0.40001-2.4 0.60001s-1.6 0.40001-2.4 0.60001c-1.6 0.40001-2.4 0.59998-3.2 0.79999-0.79999 0.2-1.6 0.40001-2.4 0.60001s-1.6 0.40001-2.4 0.60001c-1.6 0.40001-2.4 0.59998-3.2 0.79999-0.79999 0.2-1.6 0.40001-2.4 0.60001s-1.6 0.40001-2.4 0.60001c-1.6 0.40001-2.3998 0.5995-3.1973 0.79999-0.79379 0.19954-1.5816 0.39879-2.361 0.60001-0.76997 0.19879-1.5282 0.39676-2.271 0.60001-1.4391 0.39375-2.1285 0.59833-2.8027 0.79999-0.66316 0.19838-1.3173 0.40001-1.968 0.60001s-1.3045 0.40269-1.968 0.60001c-1.3637 0.40555-2.074 0.60349-2.8027 0.79733-0.74265 0.19757-1.5 0.38712-2.271 0.56099-0.77837 0.17554-1.5652 0.33989-2.361 0.47101-1.5934 0.26253-2.3962 0.33363-3.192 0.40266-0.78688 0.068253-1.5627 0.11665-2.322 0.168-0.73938 0.049988-1.456 0.09227-2.142 0.168-1.2776 0.14104-1.8577 0.265-2.4 0.39999-0.51503 0.12819-0.99834 0.27962-1.458 0.43201-0.44164 0.14641-0.86281 0.30247-1.278 0.43201-0.80075 0.24982-1.2046 0.33147-1.608 0.39999-0.40532 0.068848-0.81859 0.11792-1.239 0.168-0.43025 0.051254-0.87378 0.097672-1.329 0.168-0.9653 0.14912-1.4735 0.269-1.9973 0.40266-0.53894 0.13753-1.0841 0.2968-1.632 0.47101-0.5508 0.17513-1.0973 0.36005-1.632 0.56099-1.5333 0.57625-2.4606 0.99329-2.9173 1.176-0.89749 0.3591-1.3383 0.58107-2.784 0.888-1.0301 0.21869-1.5897 0.23125-2.16 0.28267-1.1994 0.10815-1.8308 0.14792-2.48 0.21866-1.362 0.14842-2.0705 0.26839-2.7947 0.40266-0.73862 0.13695-2.233 0.46677-2.9813 0.65067-0.74638 0.18344-1.4851 0.37277-2.9173 0.77867-0.69118 0.19588-1.3609 0.39711-2.01 0.60001-0.63089 0.1972-1.8311 0.59677-2.4 0.79999-0.55113 0.1969-2.0799 0.80156-3.018 1.191-0.45428 0.18858-1.3452 0.5722-2.2733 0.83833-0.95558 0.27399-2.0022 0.4073-2.5463 0.46533-0.55717 0.059418-1.708 0.14606-2.2947 0.21066-1.7946 0.19765-2.3924 0.32961-2.9883 0.46533-0.59557 0.13565-1.7635 0.4631-2.3307 0.65067-1.1065 0.36597-2.1396 0.77646-2.6293 0.97833-0.93909 0.3871-1.8391 0.76833-2.2933 0.92834-0.91069 0.32085-2.3905 0.6377-2.9147 0.70399-1.062 0.13432-1.5945 0.15428-2.615 0.27333-0.4818 0.056198-1.7545 0.29198-2.697 0.74533-0.5656 0.27206-1.649 0.84584-2.2907 0.98134-1.023 0.21602-1.7523 0.18318-2.6987 0.50133-0.86819 0.29187-1.6361 0.8642-2.272 1.0987-1.1189 0.41258-2.0896 0.4662-2.6053 0.51733-1.0979 0.10886-1.6756 0.14262-2.2613 0.21866-1.8005 0.23372-2.3956 0.39621-2.9947 0.53734-0.60089 0.14154-1.7991 0.44778-2.4 0.58932-0.59913 0.14113-2.399 0.46838-2.9973 0.53734-0.59304 0.068329-1.7615 0.16302-2.3307 0.21866-1.1023 0.10773-2.1457 0.25566-3.0987 0.51733-0.4537 0.12459-1.2867 0.44081-2.05 0.72667-1.2749 0.47743-2.0797 0.56284-2.9207 0.87334-0.84353 0.31146-1.4088 0.8985-2.1733 1.264-0.83997 0.40158-1.9021 0.51184-2.6507 0.61865-0.78217 0.1116-1.9829 0.37955-2.7787 0.65468-0.40222 0.13905-1.19 0.47418-2 0.72667-1.1873 0.37009-2.0087 0.46504-2.8417 0.56799-0.87236 0.10782-2.2932 0.32663-2.801 0.44299-0.52696 0.12074-1.6101 0.42238-2.1573 0.59868-1.099 0.35406-1.6408 0.539-3.1567 1.1583-0.47284 0.19318-1.3589 0.58272-2.15 1-0.72852 0.38426-1.6547 0.99387-2.179 1.391-0.69887 0.52934-1.4897 1.1689-2.3143 1.337-0.78681 0.16039-1.899-0.19955-2.6293 0.24268-0.74347 0.4502-1.2244 1.544-1.9903 1.724-0.61411 0.14436-1.6483 0.17958-2.5377 0.54832-0.83205 0.34497-1.2689 0.81345-2.376 1.557-0.6216 0.41748-1.3092 0.79553-2.016 1.128-0.67524 0.31761-1.8876 0.67383-2.609 0.87199-1.0546 0.28972-1.6222 0.73297-2.2417 1.1493-0.9711 0.65266-1.9488 0.61215-2.5573 1.2933-0.50976 0.57059-0.95137 1.4914-1.6517 1.5483-0.98515 0.080124-2.0205 0.0045319-2.4857 0.71434-0.42553 0.64937-1.1467 1.2607-2.1053 1.2947-0.77847 0.027588-1.5893 0.38319-2.0417 1-0.54042 0.73691-1.3772 0.85365-2.257 1.0507-1.0467 0.23438-1.3355 0.9955-2.0347 1.616-0.57291 0.5085-1.6846 0.18698-2.4453 0.35466-1.0405 0.22937-1.0641 1.3575-1.792 1.808-0.72598 0.44933-2.6578-0.66183-2.6578 0.17067 0 0.39517 1.0645 0 1.8298 0h2.7987 2.6 2.6 2.8 2.6c1 0 1.8302 0.030228 2.5143-0.11433 1.1501-0.24303 1.7973-0.59766 2.5273-0.88567 0.76461-0.30167 1.9526-0.69794 2.7583-0.82933 0.79555-0.12973 1.5998-0.15778 2.4-0.168 1.2002-0.015335 2.009-0.0026703 2.8417-0.0026703h2.8007 2.635 2.584 2.9093 2.232 2.7973 2.8 2.4 2.8 2.8 2.4 2.8833 2.5833 2.6773 2.274 3.182 2.4 2.4 3.2 2.4 2.4 3.2 2.4 2.4 3.2 2.4 2.4 3.2 2.4 2.4 3.2 2.4 2.4 3.1997 2.379 2.307 3.5463 1.968 3.3333 2.172 2.244 3.608 1.992 2.6187c1.3653 0 2.075-0.0016022 2.8027 0.0026703 0.74368 0.004364 1.5015 0.01387 2.271 0.039001 0.77983 0.025467 1.5683 0.060516 2.361 0.129 1.5996 0.13818 2.3983 0.26614 3.1973 0.39732 0.80096 0.13148 1.6 0.28267 2.4 0.43201s1.5984 0.30443 2.4 0.43201c1.597 0.25417 2.399 0.33281 3.1973 0.39732 0.79308 0.064102 1.5812 0.10353 2.361 0.129 0.76953 0.025131 2.271 0.039993 3.7083 0.041672 0.69066 8.0872e-4 1.3654-3.9673e-4 2.028 0.0090027 0.65471 0.0092926 1.9565 0.056381 2.6107 0.10533 0.66321 0.049622 2.029 0.21257 2.7373 0.32834 0.72646 0.11874 1.463 0.26112 2.208 0.40799 1.4993 0.29556 2.2425 0.45213 2.9813 0.58134 1.432 0.25046 2.1246 0.33241 2.8 0.39732 0.66202 0.063614 1.9679 0.13304 2.6187 0.14934 0.65457 0.016388 1.3173 0.019989 2.6827 0.021332 0.70967 6.8665e-4 1.4373 0 2.9387 0h2.337 3.191 2.4 2.4 3.1997 2.379 2.307 2.8717 2.6427 1.968 3.5464 2.307 3.1787 2.4 2.4 3.2 2.4 2.4 3.2 2.391 2.337 2.9387 2.6827 2.6187 2.8 2.232 2.232 3.4627 2.6107 2.737 2.187 2.832 2.919 2.385 3.1067 2.3307 2.9883 2.2947 3 2.9143 2.472 2.896 2.1813 3.08 2.1617 2.809c0.79999 0 1.6-0.0063324 2.8 3.3569e-4 0.80005 0.0044403 1.6041 0.0054474 2.4 0.114 1.2086 0.16484 2.0034 0.45152 2.8214 0.73633 0.85141 0.29646 1.2761 0.51572 2.712 0.81601 1.0252 0.2144 1.5714 0.22755 2.1173 0.26132 1.0978 0.067902 1.644 0.067505 3.216 0.072006 0.96268 0.0027618 1.419 0 2.2917 0h2.8416 2.4 2.7583 3 2.3857 2.6757 2.615 2.8933 2.872 2.4 2.7787 2.6533 2.736 2.6987 2.6667 2.4756 2.7697 2.6507 2.7707 2.6 2.8 2.6 2.6c1 0 1.801 0.04187 2.8-0.0026703 0.80222-0.035767 1.6167-0.30571 2.4-0.84799 0.61371-0.42488 1.3836-0.98921 2.2-1.1077 0.99051-0.14372 1.8-0.041672 2.6-0.041672h2.8" fill="none" stroke="#ffffff" stroke-width="120"/>
</svg>
