<svg id="svgcontent" width="1280" height="960" x="1280" y="960" overflow="visible" xmlns="http://www.w3.org/2000/svg" xmlns:se="http://svg-edit.googlecode.com" xmlns:xlink="http://www.w3.org/1999/xlink" viewBox="0 0 640 480"><g><path fill="none" stroke="#000000" stroke-width="12" d="M350.75,199.75 C 349.04998779296875,199.75,348.0780029296875,199.75,348.7604064941406,199.75 349.6499938964844,199.75,350.58294677734375,199.69935607910156,351.22467041015625,200.1753387451172 351.8666076660156,200.6514892578125,352.3124084472656,199.9599609375,351.7395935058594,199.25 351.2554931640625,198.64999389648438,350.7060241699219,197.895751953125,349.94866943359375,197.75132751464844 349.0658874511719,197.58299255371094,347.93438720703125,197.7470245361328,347.7513427734375,198.55133056640625 347.55194091796875,199.42759704589844,347.7519226074219,200.32408142089844,348.20867919921875,201.03399658203125 348.65966796875,201.7349853515625,349.27532958984375,202.3246612548828,349.9544982910156,202.74549865722656"></path><path fill="none" stroke="#000000" stroke-width="12" d="M350.75,299.75 C 349.75,298.75,348.9498291015625,298.73126220703125,348.04998779296875,298.75 347.1854553222656,298.76800537109375,346.66455078125,299.5592346191406,347.2604064941406,300.25 347.7662353515625,300.8363952636719,348.75,300.75,349.6499938964844,300.75 350.54998779296875,300.75,351.7296447753906,301.0753479003906,352.1928405761719,300.392822265625 352.6672058105469,299.6938171386719,352.72064208984375,298.37188720703125,352.06915283203125,297.8071594238281 351.4408264160156,297.26251220703125,350.3500061035156,297.75,349.45001220703125,297.75"></path><path fill="none" stroke="#ffffff" stroke-width="5" d="M351.25,101.75 C 350.46600341796875,100.836669921875,349.7785949707031,101.10587310791016,349.75,102.05000305175781"></path><path fill="none" stroke="#ffffff" stroke-width="5" d="M349.75,397.75 C 347.9166564941406,397.5833435058594,347.4388427734375,396.9864196777344,346.80267333984375,396.3973388671875" fill-opacity="1" stroke-opacity="1"></path></g></svg>